<svg width="16" height="16" viewBox="0 0 16 16" fill="none" xmlns="http://www.w3.org/2000/svg">
<path d="M5.33333 9.49316C6.86933 9.49316 8.192 9.76196 9.14667 10.4052C10.1355 11.0718 10.6667 12.099 10.6667 13.4398C10.6581 13.5754 10.5982 13.7027 10.4991 13.7957C10.4 13.8887 10.2692 13.9405 10.1333 13.9405C9.99744 13.9405 9.86666 13.8887 9.76758 13.7957C9.66851 13.7027 9.60858 13.5754 9.6 13.4398C9.6 12.418 9.21813 11.7374 8.55147 11.2884C7.8496 10.8169 6.77333 10.5598 5.33333 10.5598C3.89333 10.5598 2.816 10.8169 2.1152 11.2894C1.44853 11.7385 1.06667 12.419 1.06667 13.4409C1.05809 13.5765 0.998161 13.7038 0.899085 13.7968C0.800009 13.8898 0.669223 13.9415 0.533333 13.9415C0.397444 13.9415 0.266658 13.8898 0.167582 13.7968C0.0685056 13.7038 0.00858155 13.5765 0 13.4409C0 12.099 0.530133 11.0718 1.51893 10.4052C2.4736 9.76196 3.79733 9.49316 5.33333 9.49316ZM10.64 9.49316C12.1749 9.49316 13.4987 9.76196 14.4533 10.4052C15.4421 11.0718 15.9733 12.099 15.9733 13.4409C15.9733 13.5823 15.9171 13.718 15.8171 13.818C15.7171 13.918 15.5814 13.9742 15.44 13.9742C15.2986 13.9742 15.1629 13.918 15.0629 13.818C14.9629 13.718 14.9067 13.5823 14.9067 13.4409C14.9067 12.419 14.5248 11.7385 13.8571 11.2894C13.3045 10.9172 12.5205 10.6814 11.5083 10.5961C11.2561 10.1842 10.9433 9.81274 10.5803 9.49423L10.64 9.49316ZM5.33333 1.97316C6.2098 1.99525 7.04295 2.35894 7.65504 2.98665C8.26714 3.61437 8.60973 4.45641 8.60973 5.33316C8.60973 6.20991 8.26714 7.05195 7.65504 7.67967C7.04295 8.30738 6.2098 8.67107 5.33333 8.69316C4.44221 8.69316 3.58758 8.33916 2.95745 7.70904C2.32733 7.07892 1.97333 6.22429 1.97333 5.33316C1.97333 4.44203 2.32733 3.5874 2.95745 2.95728C3.58758 2.32716 4.44221 1.97316 5.33333 1.97316ZM10.64 1.97316C11.5311 1.97316 12.3858 2.32716 13.0159 2.95728C13.646 3.5874 14 4.44203 14 5.33316C14 6.22429 13.646 7.07892 13.0159 7.70904C12.3858 8.33916 11.5311 8.69316 10.64 8.69316C10.0811 8.69316 9.55627 8.55449 9.09333 8.31343C9.31655 8.03272 9.50761 7.72789 9.66293 7.40463C10.0125 7.56998 10.3982 7.64427 10.7841 7.62059C11.1701 7.5969 11.5438 7.476 11.8705 7.26914C12.1972 7.06228 12.4663 6.77617 12.6527 6.43741C12.8392 6.09865 12.937 5.71824 12.937 5.33156C12.937 4.94488 12.8392 4.56447 12.6527 4.22571C12.4663 3.88695 12.1972 3.60084 11.8705 3.39398C11.5438 3.18712 11.1701 3.06622 10.7841 3.04253C10.3982 3.01885 10.0125 3.09314 9.66293 3.25849C9.50714 2.93592 9.31572 2.63181 9.09227 2.35183C9.56928 2.1015 10.1002 1.97151 10.6389 1.97316M5.33333 3.03983C4.73721 3.05801 4.17159 3.3076 3.75635 3.7357C3.34111 4.1638 3.10889 4.73676 3.10889 5.33316C3.10889 5.92956 3.34111 6.50252 3.75635 6.93062C4.17159 7.35872 4.73721 7.60831 5.33333 7.62649C5.94156 7.62649 6.52488 7.38487 6.95496 6.95479C7.38505 6.52471 7.62667 5.94139 7.62667 5.33316C7.62667 4.72493 7.38505 4.14161 6.95496 3.71153C6.52488 3.28145 5.94156 3.03983 5.33333 3.03983Z" fill="#7F8490"/>
</svg>
