<svg width="16" height="13" viewBox="0 0 16 13" fill="none" xmlns="http://www.w3.org/2000/svg">
<path d="M3.453 0.21783C3.38624 0.149712 3.30671 0.0954165 3.21896 0.0580462C3.13121 0.0206759 3.03695 0.000963087 2.94158 3.44169e-05C2.8462 -0.000894253 2.75158 0.0169792 2.66311 0.0526336C2.57465 0.088288 2.49408 0.141025 2.426 0.20783C1.65618 0.973575 1.04549 1.88409 0.629119 2.8869C0.212752 3.88972 -0.0010592 4.96501 4.13339e-06 6.05083C-0.00112582 7.17833 0.229431 8.29404 0.677373 9.32874C1.12531 10.3634 1.78108 11.2951 2.604 12.0658C2.74252 12.1939 2.9255 12.2629 3.11408 12.2582C3.30265 12.2536 3.48199 12.1756 3.614 12.0408C3.93 11.7248 3.891 11.2218 3.587 10.9308C2.9265 10.3014 2.40089 9.54416 2.04212 8.70525C1.68335 7.86634 1.49891 6.96324 1.5 6.05083C1.5 4.20483 2.241 2.53083 3.443 1.31283C3.733 1.01783 3.763 0.52783 3.453 0.21783ZM5.214 1.98083C5.0823 1.84532 4.90225 1.76754 4.71331 1.76454C4.52437 1.76154 4.34194 1.83356 4.206 1.96483C3.66482 2.49868 3.23527 3.13489 2.94238 3.83638C2.64949 4.53788 2.49911 5.29064 2.5 6.05083C2.5 7.74283 3.23 9.26383 4.393 10.3158C4.53038 10.437 4.70909 10.5006 4.89211 10.4935C5.07512 10.4864 5.24839 10.4092 5.376 10.2778C5.704 9.94983 5.643 9.43383 5.335 9.14383C4.91295 8.74685 4.57675 8.26758 4.34714 7.73561C4.11753 7.20363 3.99938 6.63024 4 6.05083C4 4.90083 4.457 3.85683 5.2 3.09083C5.486 2.79683 5.533 2.29883 5.214 1.98083ZM10.786 1.97983C10.9177 1.84432 11.0978 1.76654 11.2867 1.76354C11.4756 1.76054 11.6581 1.83257 11.794 1.96383C12.3353 2.4978 12.7649 3.13417 13.0578 3.83585C13.3507 4.53752 13.501 5.29048 13.5 6.05083C13.5 7.74283 12.77 9.26383 11.607 10.3158C11.4696 10.437 11.2909 10.5006 11.1079 10.4935C10.9249 10.4864 10.7516 10.4092 10.624 10.2778C10.296 9.94983 10.357 9.43383 10.665 9.14383C11.0871 8.74685 11.4233 8.26758 11.6529 7.73561C11.8825 7.20363 12.0006 6.63024 12 6.05083C12 4.90083 11.543 3.85683 10.8 3.09083C10.514 2.79683 10.467 2.29783 10.786 1.97983ZM12.547 0.21783C12.6138 0.149712 12.6933 0.0954165 12.781 0.0580462C12.8688 0.0206759 12.9631 0.000963087 13.0584 3.44169e-05C13.1538 -0.000894253 13.2484 0.0169792 13.3369 0.0526336C13.4254 0.088288 13.5059 0.141025 13.574 0.20783C14.3438 0.973575 14.9545 1.88409 15.3709 2.8869C15.7873 3.88972 16.0011 4.96501 16 6.05083C16.0011 7.17833 15.7706 8.29404 15.3226 9.32874C14.8747 10.3634 14.2189 11.2951 13.396 12.0658C13.2575 12.1939 13.0745 12.2629 12.8859 12.2582C12.6974 12.2536 12.518 12.1756 12.386 12.0408C12.07 11.7248 12.109 11.2218 12.414 10.9308C13.0743 10.3013 13.5997 9.54404 13.9583 8.70513C14.3169 7.86623 14.5012 6.96317 14.5 6.05083C14.5 4.20483 13.759 2.53083 12.557 1.31283C12.267 1.01783 12.237 0.52783 12.547 0.21783ZM8 4.55083C7.60218 4.55083 7.22065 4.70887 6.93934 4.99017C6.65804 5.27147 6.5 5.65301 6.5 6.05083C6.5 6.44865 6.65804 6.83019 6.93934 7.11149C7.22065 7.39279 7.60218 7.55083 8 7.55083C8.39783 7.55083 8.77936 7.39279 9.06066 7.11149C9.34197 6.83019 9.5 6.44865 9.5 6.05083C9.5 5.65301 9.34197 5.27147 9.06066 4.99017C8.77936 4.70887 8.39783 4.55083 8 4.55083Z" fill="#B30505"/>
</svg>
