<svg width="24" height="24" viewBox="0 0 24 24" fill="none" xmlns="http://www.w3.org/2000/svg">
<mask id="path-1-inside-1_257_7301" fill="white">
<path d="M21.7015 11.9996C21.76 11.9198 21.82 11.8399 21.8766 11.76C23.3357 9.6765 23.6432 7.74225 22.744 6.31312C21.9126 4.99275 20.1265 4.26562 17.713 4.26562C17.2918 4.26562 16.8553 4.29037 16.4091 4.33425C15.3242 2.11912 13.7627 0.75 11.9991 0.75C10.2362 0.75 8.67471 2.11912 7.58984 4.33425C7.1567 4.29037 6.72169 4.26747 6.28634 4.26562C3.87359 4.26562 2.08671 4.99275 1.25533 6.31312C0.355335 7.74225 0.66321 9.6765 2.12196 11.76C2.17821 11.8399 2.23821 11.9198 2.29708 11.9996C2.23783 12.0795 2.17783 12.159 2.12158 12.2396C0.662835 14.3224 0.35496 16.2574 1.25496 17.6865C2.08633 19.0065 3.87321 19.7344 6.28596 19.7344H6.28671C6.72184 19.733 7.15662 19.71 7.58946 19.6654C8.67433 21.8813 10.2358 23.25 11.9991 23.25C13.7631 23.25 15.3246 21.8813 16.4091 19.6654C16.855 19.7093 17.2918 19.7344 17.713 19.7344C20.1265 19.7344 21.9126 19.0073 22.744 17.6865C23.6432 16.2574 23.3357 14.3224 21.8766 12.2396C21.82 12.159 21.76 12.0795 21.7015 11.9996ZM17.7126 4.91063C19.8636 4.91063 21.4341 5.523 22.1342 6.63562C22.8958 7.84537 22.5951 9.5415 21.2845 11.4116L21.2631 11.4398C20.314 10.2968 19.0783 9.1965 17.6376 8.205C17.4178 7.01212 17.095 5.91787 16.69 4.95525C17.0387 4.92637 17.3811 4.91063 17.7126 4.91063ZM14.9338 16.6613C13.9867 17.1607 13.0063 17.5941 11.9995 17.9584C10.9924 17.5941 10.0117 17.1607 9.06433 16.6613C8.36056 16.2884 7.67641 15.8796 7.01459 15.4365C6.82067 14.3013 6.72394 13.1516 6.72546 12C6.72546 10.7966 6.82821 9.64087 7.01459 8.56275C7.67642 8.11992 8.36057 7.71138 9.06433 7.33875C10.0117 6.83942 10.9924 6.40614 11.9995 6.042C13.0063 6.40617 13.9867 6.83945 14.9338 7.33875C15.6375 7.71127 16.3215 8.11968 16.9832 8.56238C17.1772 9.69794 17.2739 10.848 17.2723 12C17.2723 13.203 17.17 14.3591 16.9832 15.4373C16.3215 15.8801 15.6375 16.2886 14.9338 16.6613ZM16.8025 16.3455C16.5857 17.3014 16.2992 18.1811 15.9572 18.9596C14.9998 18.8314 13.9986 18.6038 12.9805 18.288C14.3093 17.7546 15.5883 17.1045 16.8025 16.3455ZM11.0177 18.288C9.99996 18.6038 8.99871 18.8314 8.04171 18.9596C7.69896 18.1811 7.41321 17.3014 7.19608 16.3455C7.69092 16.6551 8.19688 16.9465 8.71296 17.2192C9.4618 17.6159 10.2311 17.9727 11.0177 18.288ZM6.21246 14.8762C4.99784 13.9789 3.96508 13.0042 3.16146 12C3.96508 10.9961 4.99746 10.0204 6.21246 9.12375C6.08455 10.0773 6.02115 11.0383 6.02271 12.0004C6.02271 12.9975 6.08871 13.9609 6.21246 14.8762ZM7.19571 7.65488C7.41283 6.69938 7.69858 5.81925 8.04133 5.04075C8.99833 5.16863 9.99958 5.39625 11.0177 5.712C10.2311 6.02743 9.46179 6.38431 8.71296 6.78113C8.19675 7.05382 7.69066 7.34527 7.19571 7.65488ZM12.9812 5.71162C13.9986 5.39625 14.9998 5.16862 15.9572 5.04037C16.2992 5.81887 16.5857 6.69863 16.8025 7.6545C15.5885 6.8954 14.3098 6.24524 12.9812 5.71162ZM17.7861 9.12338C19.0003 10.0204 20.0338 10.9958 20.8375 12C20.0338 13.0042 19.0015 13.98 17.7861 14.8762C17.9098 13.9609 17.9758 12.9975 17.9758 12.0004C17.9758 11.0021 17.9098 10.0388 17.7861 9.12338ZM11.9991 1.45312C13.4215 1.45312 14.7137 2.58713 15.6628 4.42425C14.4842 4.59713 13.2452 4.9095 11.9995 5.34525C10.7537 4.9095 9.51434 4.59713 8.33571 4.42425C9.28521 2.58713 10.5767 1.45312 11.9991 1.45312ZM2.71333 11.4116C1.40383 9.5415 1.10196 7.845 1.86358 6.63562C2.56408 5.523 4.13496 4.91063 6.28596 4.91063C6.61746 4.91063 6.95946 4.92637 7.30821 4.95525C6.90246 5.91787 6.57996 7.01212 6.35983 8.205C4.91946 9.1965 3.68383 10.2971 2.73471 11.4398C2.72833 11.4304 2.72008 11.421 2.71333 11.4116ZM6.28708 19.089H6.28634C4.13534 19.089 2.56483 18.4766 1.86396 17.364C1.10233 16.1546 1.40383 14.4585 2.71371 12.588L2.73546 12.5602C3.68458 13.7029 4.92021 14.8035 6.36059 15.7954C6.58071 16.9879 6.90321 18.0829 7.30896 19.0451C6.95946 19.0741 6.61883 19.0887 6.28708 19.089ZM11.9991 22.5469C10.5771 22.5469 9.28521 21.4133 8.33571 19.5754C9.51396 19.4025 10.753 19.0897 11.9987 18.6547C13.2445 19.0897 14.4842 19.4025 15.6628 19.5754C14.7133 21.4133 13.4215 22.5469 11.9991 22.5469ZM22.135 17.3644C21.4341 18.477 19.8636 19.0894 17.7126 19.0894C17.3807 19.0894 17.0387 19.074 16.69 19.0455C17.095 18.0825 17.4178 16.9883 17.6376 15.7958C19.0783 14.8039 20.314 13.7033 21.2631 12.5599C21.2701 12.5694 21.2775 12.5789 21.2852 12.5884C22.5951 14.4589 22.897 16.155 22.135 17.3644Z"/>
</mask>
<path d="M21.7015 11.9996C21.76 11.9198 21.82 11.8399 21.8766 11.76C23.3357 9.6765 23.6432 7.74225 22.744 6.31312C21.9126 4.99275 20.1265 4.26562 17.713 4.26562C17.2918 4.26562 16.8553 4.29037 16.4091 4.33425C15.3242 2.11912 13.7627 0.75 11.9991 0.75C10.2362 0.75 8.67471 2.11912 7.58984 4.33425C7.1567 4.29037 6.72169 4.26747 6.28634 4.26562C3.87359 4.26562 2.08671 4.99275 1.25533 6.31312C0.355335 7.74225 0.66321 9.6765 2.12196 11.76C2.17821 11.8399 2.23821 11.9198 2.29708 11.9996C2.23783 12.0795 2.17783 12.159 2.12158 12.2396C0.662835 14.3224 0.35496 16.2574 1.25496 17.6865C2.08633 19.0065 3.87321 19.7344 6.28596 19.7344H6.28671C6.72184 19.733 7.15662 19.71 7.58946 19.6654C8.67433 21.8813 10.2358 23.25 11.9991 23.25C13.7631 23.25 15.3246 21.8813 16.4091 19.6654C16.855 19.7093 17.2918 19.7344 17.713 19.7344C20.1265 19.7344 21.9126 19.0073 22.744 17.6865C23.6432 16.2574 23.3357 14.3224 21.8766 12.2396C21.82 12.159 21.76 12.0795 21.7015 11.9996ZM17.7126 4.91063C19.8636 4.91063 21.4341 5.523 22.1342 6.63562C22.8958 7.84537 22.5951 9.5415 21.2845 11.4116L21.2631 11.4398C20.314 10.2968 19.0783 9.1965 17.6376 8.205C17.4178 7.01212 17.095 5.91787 16.69 4.95525C17.0387 4.92637 17.3811 4.91063 17.7126 4.91063ZM14.9338 16.6613C13.9867 17.1607 13.0063 17.5941 11.9995 17.9584C10.9924 17.5941 10.0117 17.1607 9.06433 16.6613C8.36056 16.2884 7.67641 15.8796 7.01459 15.4365C6.82067 14.3013 6.72394 13.1516 6.72546 12C6.72546 10.7966 6.82821 9.64087 7.01459 8.56275C7.67642 8.11992 8.36057 7.71138 9.06433 7.33875C10.0117 6.83942 10.9924 6.40614 11.9995 6.042C13.0063 6.40617 13.9867 6.83945 14.9338 7.33875C15.6375 7.71127 16.3215 8.11968 16.9832 8.56238C17.1772 9.69794 17.2739 10.848 17.2723 12C17.2723 13.203 17.17 14.3591 16.9832 15.4373C16.3215 15.8801 15.6375 16.2886 14.9338 16.6613ZM16.8025 16.3455C16.5857 17.3014 16.2992 18.1811 15.9572 18.9596C14.9998 18.8314 13.9986 18.6038 12.9805 18.288C14.3093 17.7546 15.5883 17.1045 16.8025 16.3455ZM11.0177 18.288C9.99996 18.6038 8.99871 18.8314 8.04171 18.9596C7.69896 18.1811 7.41321 17.3014 7.19608 16.3455C7.69092 16.6551 8.19688 16.9465 8.71296 17.2192C9.4618 17.6159 10.2311 17.9727 11.0177 18.288ZM6.21246 14.8762C4.99784 13.9789 3.96508 13.0042 3.16146 12C3.96508 10.9961 4.99746 10.0204 6.21246 9.12375C6.08455 10.0773 6.02115 11.0383 6.02271 12.0004C6.02271 12.9975 6.08871 13.9609 6.21246 14.8762ZM7.19571 7.65488C7.41283 6.69938 7.69858 5.81925 8.04133 5.04075C8.99833 5.16863 9.99958 5.39625 11.0177 5.712C10.2311 6.02743 9.46179 6.38431 8.71296 6.78113C8.19675 7.05382 7.69066 7.34527 7.19571 7.65488ZM12.9812 5.71162C13.9986 5.39625 14.9998 5.16862 15.9572 5.04037C16.2992 5.81887 16.5857 6.69863 16.8025 7.6545C15.5885 6.8954 14.3098 6.24524 12.9812 5.71162ZM17.7861 9.12338C19.0003 10.0204 20.0338 10.9958 20.8375 12C20.0338 13.0042 19.0015 13.98 17.7861 14.8762C17.9098 13.9609 17.9758 12.9975 17.9758 12.0004C17.9758 11.0021 17.9098 10.0388 17.7861 9.12338ZM11.9991 1.45312C13.4215 1.45312 14.7137 2.58713 15.6628 4.42425C14.4842 4.59713 13.2452 4.9095 11.9995 5.34525C10.7537 4.9095 9.51434 4.59713 8.33571 4.42425C9.28521 2.58713 10.5767 1.45312 11.9991 1.45312ZM2.71333 11.4116C1.40383 9.5415 1.10196 7.845 1.86358 6.63562C2.56408 5.523 4.13496 4.91063 6.28596 4.91063C6.61746 4.91063 6.95946 4.92637 7.30821 4.95525C6.90246 5.91787 6.57996 7.01212 6.35983 8.205C4.91946 9.1965 3.68383 10.2971 2.73471 11.4398C2.72833 11.4304 2.72008 11.421 2.71333 11.4116ZM6.28708 19.089H6.28634C4.13534 19.089 2.56483 18.4766 1.86396 17.364C1.10233 16.1546 1.40383 14.4585 2.71371 12.588L2.73546 12.5602C3.68458 13.7029 4.92021 14.8035 6.36059 15.7954C6.58071 16.9879 6.90321 18.0829 7.30896 19.0451C6.95946 19.0741 6.61883 19.0887 6.28708 19.089ZM11.9991 22.5469C10.5771 22.5469 9.28521 21.4133 8.33571 19.5754C9.51396 19.4025 10.753 19.0897 11.9987 18.6547C13.2445 19.0897 14.4842 19.4025 15.6628 19.5754C14.7133 21.4133 13.4215 22.5469 11.9991 22.5469ZM22.135 17.3644C21.4341 18.477 19.8636 19.0894 17.7126 19.0894C17.3807 19.0894 17.0387 19.074 16.69 19.0455C17.095 18.0825 17.4178 16.9883 17.6376 15.7958C19.0783 14.8039 20.314 13.7033 21.2631 12.5599C21.2701 12.5694 21.2775 12.5789 21.2852 12.5884C22.5951 14.4589 22.897 16.155 22.135 17.3644Z" fill="#446175"/>
<path d="M21.7015 11.9996L20.8947 11.4088L20.4619 11.9996L20.8947 12.5905L21.7015 11.9996ZM21.8766 11.76L22.6924 12.3383L22.6957 12.3336L21.8766 11.76ZM22.744 6.31312L23.5903 5.78055L23.5902 5.7803L22.744 6.31312ZM16.4091 4.33425L15.511 4.77409L15.8163 5.39736L16.5069 5.32945L16.4091 4.33425ZM7.58984 4.33425L7.48904 5.32916L8.1817 5.39933L8.48791 4.77409L7.58984 4.33425ZM6.28634 4.26562L6.29057 3.26562H6.28634L6.28634 4.26562ZM1.25533 6.31312L2.10152 6.84601L2.10156 6.84595L1.25533 6.31312ZM2.12196 11.76L1.30278 12.3335L1.30435 12.3358L2.12196 11.76ZM2.29708 11.9996L3.10024 12.5954L3.54077 12.0015L3.10205 11.4063L2.29708 11.9996ZM2.12158 12.2396L2.94067 12.8133L2.94171 12.8118L2.12158 12.2396ZM1.25496 17.6865L0.408775 18.2194L0.408803 18.2194L1.25496 17.6865ZM6.28671 19.7344L6.28671 20.7344L6.28991 20.7344L6.28671 19.7344ZM7.58946 19.6654L8.48759 19.2257L8.18087 18.5992L7.48701 18.6706L7.58946 19.6654ZM16.4091 19.6654L16.507 18.6702L15.8161 18.6022L15.5109 19.2258L16.4091 19.6654ZM22.744 17.6865L23.5903 18.2192L23.5903 18.2191L22.744 17.6865ZM21.8766 12.2396L22.6956 11.6658L22.6949 11.6649L21.8766 12.2396ZM22.1342 6.63562L21.2878 7.16821L21.288 7.1684L22.1342 6.63562ZM21.2845 11.4116L22.0806 12.0167L22.0923 12.0014L22.1034 11.9855L21.2845 11.4116ZM21.2631 11.4398L20.4937 12.0786L21.2977 13.0468L22.0592 12.0448L21.2631 11.4398ZM17.6376 8.205L16.6541 8.38617L16.7292 8.7938L17.0707 9.02878L17.6376 8.205ZM16.69 4.95525L16.6074 3.95866L15.2336 4.07241L15.7682 5.34305L16.69 4.95525ZM14.9338 16.6613L15.4003 17.5458L15.4018 17.545L14.9338 16.6613ZM11.9995 17.9584L11.6593 18.8988L11.9995 19.0218L12.3397 18.8987L11.9995 17.9584ZM9.06433 16.6613L8.59617 17.5449L8.59796 17.5458L9.06433 16.6613ZM7.01459 15.4365L6.02886 15.6049L6.10121 16.0284L6.45826 16.2675L7.01459 15.4365ZM6.72546 12L7.72546 12.0013V12L6.72546 12ZM7.01459 8.56275L6.45849 7.73163L6.10222 7.97001L6.0292 8.39241L7.01459 8.56275ZM9.06433 7.33875L8.59806 6.45411L8.5964 6.45499L9.06433 7.33875ZM11.9995 6.042L12.3396 5.10162L11.9995 4.97862L11.6594 5.10159L11.9995 6.042ZM14.9338 7.33875L15.4017 6.45497L15.4002 6.45415L14.9338 7.33875ZM16.9832 8.56238L17.9689 8.39399L17.8965 7.97025L17.5393 7.73122L16.9832 8.56238ZM17.2723 12L16.2723 11.9986V12H17.2723ZM16.9832 15.4373L17.5394 16.2683L17.8954 16.0301L17.9685 15.6079L16.9832 15.4373ZM16.8025 16.3455L17.7777 16.5666L18.3088 14.2246L16.2724 15.4975L16.8025 16.3455ZM15.9572 18.9596L15.8244 19.9508L16.5701 20.0507L16.8728 19.3618L15.9572 18.9596ZM12.9805 18.288L12.6079 17.36L9.99475 18.409L12.6842 19.2431L12.9805 18.288ZM11.0177 18.288L11.314 19.2431L14.0051 18.4082L11.3898 17.3598L11.0177 18.288ZM8.04171 18.9596L7.12649 19.3626L7.42941 20.0506L8.17454 19.9508L8.04171 18.9596ZM7.19608 16.3455L7.72649 15.4978L5.6884 14.2226L6.22093 16.567L7.19608 16.3455ZM8.71296 17.2192L9.18107 16.3356L9.18016 16.3351L8.71296 17.2192ZM6.21246 14.8762L5.61824 15.6805L7.52026 17.0858L7.20345 14.7423L6.21246 14.8762ZM3.16146 12L2.38079 11.3751L1.8806 11.9999L2.38068 12.6248L3.16146 12ZM6.21246 9.12375L7.20358 9.25671L7.51732 6.918L5.61868 8.31913L6.21246 9.12375ZM6.02271 12.0004L7.02271 12.0004L7.02271 11.9988L6.02271 12.0004ZM7.19571 7.65488L6.22057 7.43329L5.68785 9.77761L7.72603 8.50267L7.19571 7.65488ZM8.04133 5.04075L8.17378 4.04956L7.42892 3.95003L7.12611 4.6378L8.04133 5.04075ZM11.0177 5.712L11.3899 6.64015L14.005 5.59146L11.3139 4.75688L11.0177 5.712ZM8.71296 6.78113L9.18006 7.66533L9.18119 7.66473L8.71296 6.78113ZM12.9812 5.71162L12.6851 4.75646L9.99568 5.59016L12.6085 6.63958L12.9812 5.71162ZM15.9572 5.04037L16.8728 4.63817L16.5701 3.94933L15.8244 4.04923L15.9572 5.04037ZM16.8025 7.6545L16.2723 8.50237L18.3089 9.77593L17.7777 7.43336L16.8025 7.6545ZM17.7861 9.12338L18.3803 8.31904L16.4783 6.91401L16.7951 9.25735L17.7861 9.12338ZM20.8375 12L21.6182 12.6248L22.1182 12L21.6182 11.3752L20.8375 12ZM17.7861 14.8762L16.7951 14.7423L16.4787 17.0829L18.3796 15.6811L17.7861 14.8762ZM15.6628 4.42425L15.808 5.41366L17.1945 5.21029L16.5513 3.96525L15.6628 4.42425ZM11.9995 5.34525L11.6693 6.28917L11.9995 6.40466L12.3296 6.28917L11.9995 5.34525ZM8.33571 4.42425L7.44735 3.96511L6.8038 5.21026L8.19059 5.41366L8.33571 4.42425ZM2.71333 11.4116L1.89412 11.9853L1.9018 11.9959L2.71333 11.4116ZM1.86358 6.63562L2.70977 7.16852L2.70983 7.16842L1.86358 6.63562ZM7.30821 4.95525L8.2297 5.34366L8.7655 4.07249L7.39072 3.95866L7.30821 4.95525ZM6.35983 8.205L6.92685 9.02871L7.26806 8.79383L7.34323 8.38647L6.35983 8.205ZM2.73471 11.4398L1.90778 12.0021L2.65494 13.1008L3.50394 12.0787L2.73471 11.4398ZM6.28708 19.089L6.28708 20.089L6.28784 20.089L6.28708 19.089ZM1.86396 17.364L1.01778 17.8969L1.01784 17.897L1.86396 17.364ZM2.71371 12.588L1.92665 11.9711L1.91004 11.9923L1.89459 12.0144L2.71371 12.588ZM2.73546 12.5602L3.50469 11.9213L2.71286 10.968L1.9484 11.9434L2.73546 12.5602ZM6.36059 15.7954L7.34397 15.6138L7.2688 15.2066L6.92774 14.9718L6.36059 15.7954ZM7.30896 19.0451L7.39165 20.0417L8.76635 19.9276L8.23039 18.6566L7.30896 19.0451ZM8.33571 19.5754L8.19054 18.586L6.80408 18.7894L7.44727 20.0344L8.33571 19.5754ZM11.9987 18.6547L12.3284 17.7107L11.9987 17.5955L11.669 17.7107L11.9987 18.6547ZM15.6628 19.5754L16.5513 20.0344L17.1945 18.7893L15.808 18.586L15.6628 19.5754ZM22.135 17.3644L21.2889 16.8313L21.2888 16.8314L22.135 17.3644ZM16.69 19.0455L15.7682 18.6578L15.2332 19.9298L16.6085 20.0422L16.69 19.0455ZM17.6376 15.7958L17.0705 14.9721L16.7292 15.207L16.6541 15.6145L17.6376 15.7958ZM21.2631 12.5599L22.0681 11.9667L21.31 10.9377L20.4936 11.9212L21.2631 12.5599ZM21.2852 12.5884L22.1043 12.0148L22.0833 11.9847L22.0601 11.9562L21.2852 12.5884ZM21.7015 11.9996L22.5082 12.5905C22.5568 12.5242 22.6301 12.4262 22.6924 12.3383L21.8766 11.76L21.0608 11.1817C21.0099 11.2535 20.9631 11.3153 20.8947 11.4088L21.7015 11.9996ZM21.8766 11.76L22.6957 12.3336C24.2515 10.1121 24.8058 7.71216 23.5903 5.78055L22.744 6.31312L21.8976 6.8457C22.4806 7.77234 22.4199 9.24091 21.0575 11.1864L21.8766 11.76ZM22.744 6.31312L23.5902 5.7803C22.4905 4.03377 20.2718 3.26562 17.713 3.26562V4.26562V5.26562C19.9812 5.26562 21.3347 5.95173 21.8977 6.84595L22.744 6.31312ZM17.713 4.26562V3.26562C17.2533 3.26562 16.7836 3.29261 16.3112 3.33905L16.4091 4.33425L16.5069 5.32945C16.9271 5.28814 17.3304 5.26562 17.713 5.26562V4.26562ZM16.4091 4.33425L17.3072 3.89441C16.1573 1.54662 14.3328 -0.25 11.9991 -0.25V0.75V1.75C13.1927 1.75 14.4911 2.69163 15.511 4.77409L16.4091 4.33425ZM11.9991 0.75V-0.25C9.66608 -0.25 7.84156 1.54673 6.69176 3.89441L7.58984 4.33425L8.48791 4.77409C9.50786 2.69152 10.8063 1.75 11.9991 1.75V0.75ZM7.58984 4.33425L7.69063 3.33934C7.2254 3.29221 6.75817 3.26761 6.29057 3.26563L6.28634 4.26562L6.2821 5.26562C6.6852 5.26732 7.08799 5.28853 7.48904 5.32916L7.58984 4.33425ZM6.28634 4.26562L6.28634 3.26562C3.72835 3.26562 1.50884 4.03373 0.40911 5.7803L1.25533 6.31312L2.10156 6.84595C2.66458 5.95177 4.01882 5.26562 6.28634 5.26562L6.28634 4.26562ZM1.25533 6.31312L0.40915 5.78023C-0.80741 7.71203 -0.25246 10.1122 1.30278 12.3335L2.12196 11.76L2.94114 11.1865C1.57888 9.24078 1.51808 7.77247 2.10152 6.84601L1.25533 6.31312ZM2.12196 11.76L1.30435 12.3358C1.36889 12.4274 1.44062 12.5231 1.49212 12.593L2.29708 11.9996L3.10205 11.4063C3.0358 11.3164 2.98753 11.2523 2.93957 11.1842L2.12196 11.76ZM2.29708 11.9996L1.49393 11.4039C1.44165 11.4743 1.36855 11.5713 1.30146 11.6674L2.12158 12.2396L2.94171 12.8118C2.98712 12.7467 3.03402 12.6847 3.10024 12.5954L2.29708 11.9996ZM2.12158 12.2396L1.30251 11.6659C-0.252901 13.8867 -0.807757 16.2876 0.408775 18.2194L1.25496 17.6865L2.10114 17.1536C1.51768 16.2271 1.57857 14.7581 2.94066 12.8133L2.12158 12.2396ZM1.25496 17.6865L0.408803 18.2194C1.50843 19.9653 3.72764 20.7344 6.28596 20.7344V19.7344V18.7344C4.01878 18.7344 2.66424 18.0477 2.10112 17.1536L1.25496 17.6865ZM6.28596 19.7344V20.7344H6.28671V19.7344V18.7344H6.28596V19.7344ZM6.28671 19.7344L6.28991 20.7344C6.75818 20.7329 7.2261 20.7081 7.69191 20.6601L7.58946 19.6654L7.48701 18.6706C7.08715 18.7118 6.68549 18.7331 6.28351 18.7344L6.28671 19.7344ZM7.58946 19.6654L6.69132 20.1051C7.8412 22.4537 9.66577 24.25 11.9991 24.25V23.25V22.25C10.8059 22.25 9.50747 21.3088 8.48759 19.2257L7.58946 19.6654ZM11.9991 23.25V24.25C14.3331 24.25 16.1577 22.4538 17.3073 20.105L16.4091 19.6654L15.5109 19.2258C14.4915 21.3087 13.1931 22.25 11.9991 22.25V23.25ZM16.4091 19.6654L16.3112 20.6606C16.7826 20.707 17.2528 20.7344 17.713 20.7344V19.7344V18.7344C17.3308 18.7344 16.9273 18.7115 16.507 18.6702L16.4091 19.6654ZM17.713 19.7344V20.7344C20.2718 20.7344 22.4906 19.9662 23.5903 18.2192L22.744 17.6865L21.8977 17.1538C21.3346 18.0483 19.9811 18.7344 17.713 18.7344V19.7344ZM22.744 17.6865L23.5903 18.2191C24.8057 16.2875 24.2516 13.8868 22.6956 11.6658L21.8766 12.2396L21.0576 12.8134C22.4199 14.7579 22.4807 16.2272 21.8976 17.1539L22.744 17.6865ZM21.8766 12.2396L22.6949 11.6649C22.6309 11.5737 22.5551 11.4727 22.5082 11.4088L21.7015 11.9996L20.8947 12.5905C20.9648 12.6863 21.009 12.7443 21.0582 12.8144L21.8766 12.2396ZM17.7126 4.91063V5.91063C19.7456 5.91063 20.8651 6.49649 21.2878 7.16821L22.1342 6.63562L22.9806 6.10304C22.003 4.54951 19.9816 3.91063 17.7126 3.91063V4.91063ZM22.1342 6.63562L21.288 7.1684C21.7212 7.85656 21.6993 9.07731 20.4655 10.8377L21.2845 11.4116L22.1034 11.9855C23.4909 10.0057 24.0705 7.83419 22.9805 6.10285L22.1342 6.63562ZM21.2845 11.4116L20.4883 10.8065L20.4669 10.8347L21.2631 11.4398L22.0592 12.0448L22.0806 12.0167L21.2845 11.4116ZM21.2631 11.4398L22.0324 10.8009C21.0147 9.57535 19.707 8.4152 18.2045 7.38122L17.6376 8.205L17.0707 9.02878C18.4497 9.9778 19.6132 11.0182 20.4937 12.0786L21.2631 11.4398ZM17.6376 8.205L18.621 8.02383C18.3896 6.76773 18.0475 5.60336 17.6117 4.56745L16.69 4.95525L15.7682 5.34305C16.1424 6.23239 16.446 7.25652 16.6541 8.38617L17.6376 8.205ZM16.69 4.95525L16.7725 5.95184C17.0978 5.92491 17.4124 5.91063 17.7126 5.91063V4.91063V3.91063C17.3498 3.91063 16.9797 3.92784 16.6074 3.95866L16.69 4.95525ZM14.9338 16.6613L14.4674 15.7767C13.561 16.2546 12.6227 16.6694 11.6592 17.018L11.9995 17.9584L12.3397 18.8987C13.3898 18.5188 14.4125 18.0667 15.4003 17.5458L14.9338 16.6613ZM11.9995 17.9584L12.3396 17.018C11.3758 16.6694 10.4373 16.2546 9.53071 15.7767L9.06433 16.6613L8.59796 17.5458C9.58604 18.0668 10.6089 18.5188 11.6593 18.8988L11.9995 17.9584ZM9.06433 16.6613L9.5325 15.7776C8.859 15.4208 8.20427 15.0296 7.57091 14.6055L7.01459 15.4365L6.45826 16.2675C7.14854 16.7296 7.86212 17.156 8.59617 17.5449L9.06433 16.6613ZM7.01459 15.4365L8.00031 15.2681C7.81596 14.189 7.72402 13.0961 7.72546 12.0013L6.72546 12L5.72546 11.9987C5.72387 13.2072 5.82537 14.4136 6.02886 15.6049L7.01459 15.4365ZM6.72546 12L7.72546 12C7.72546 10.8531 7.82343 9.75433 7.99997 8.73309L7.01459 8.56275L6.0292 8.39241C5.83299 9.52742 5.72546 10.7402 5.72546 12L6.72546 12ZM7.01459 8.56275L7.57068 9.39387C8.20405 8.97008 8.85878 8.57911 9.53227 8.22251L9.06433 7.33875L8.5964 6.45499C7.86237 6.84364 7.14879 7.26975 6.45849 7.73163L7.01459 8.56275ZM9.06433 7.33875L9.53061 8.22339C10.4372 7.74554 11.3757 7.33089 12.3395 6.98241L11.9995 6.042L11.6594 5.10159C10.609 5.48139 9.58615 5.93331 8.59806 6.45411L9.06433 7.33875ZM11.9995 6.042L11.6593 6.98237C12.6228 7.33088 13.5611 7.74553 14.4675 8.22335L14.9338 7.33875L15.4002 6.45415C14.4123 5.93338 13.3897 5.48146 12.3396 5.10162L11.9995 6.042ZM14.9338 7.33875L14.4659 8.22253C15.1393 8.57903 15.7939 8.96987 16.4272 9.39353L16.9832 8.56238L17.5393 7.73122C16.8491 7.26949 16.1356 6.84351 15.4017 6.45497L14.9338 7.33875ZM16.9832 8.56238L15.9975 8.73076C16.1819 9.81025 16.2738 10.9035 16.2723 11.9986L17.2723 12L18.2723 12.0014C18.274 10.7925 18.1725 9.58563 17.9689 8.39399L16.9832 8.56238ZM17.2723 12H16.2723C16.2723 13.1468 16.1747 14.2458 15.9979 15.2666L16.9832 15.4373L17.9685 15.6079C18.1652 14.4725 18.2723 13.2592 18.2723 12H17.2723ZM16.9832 15.4373L16.4271 14.6062C15.7938 15.0299 15.1392 15.4209 14.4658 15.7775L14.9338 16.6613L15.4018 17.545C16.1357 17.1563 16.8492 16.7302 17.5394 16.2683L16.9832 15.4373ZM16.8025 16.3455L15.8272 16.1244C15.623 17.0251 15.3553 17.8434 15.0417 18.5574L15.9572 18.9596L16.8728 19.3618C17.2431 18.5188 17.5484 17.5777 17.7777 16.5666L16.8025 16.3455ZM15.9572 18.9596L16.09 17.9685C15.1949 17.8486 14.2485 17.6343 13.2767 17.3329L12.9805 18.288L12.6842 19.2431C13.7487 19.5732 14.8048 19.8142 15.8244 19.9508L15.9572 18.9596ZM12.9805 18.288L13.353 19.216C14.7366 18.6606 16.0683 17.9837 17.3325 17.1935L16.8025 16.3455L16.2724 15.4975C15.1082 16.2253 13.882 16.8485 12.6079 17.36L12.9805 18.288ZM11.0177 18.288L10.7214 17.3329C9.75001 17.6343 8.80363 17.8486 7.90889 17.9685L8.04171 18.9596L8.17454 19.9508C9.19379 19.8142 10.2499 19.5732 11.314 19.2431L11.0177 18.288ZM8.04171 18.9596L8.95693 18.5567C8.64299 17.8436 8.37603 17.0255 8.17124 16.124L7.19608 16.3455L6.22093 16.567C6.45039 17.5772 6.75493 18.5186 7.12649 19.3626L8.04171 18.9596ZM7.19608 16.3455L6.66568 17.1932C7.18113 17.5157 7.70817 17.8193 8.24576 18.1034L8.71296 17.2192L9.18016 16.3351C8.68558 16.0738 8.2007 15.7945 7.72649 15.4978L7.19608 16.3455ZM8.71296 17.2192L8.24485 18.1029C9.02489 18.5161 9.82627 18.8878 10.6456 19.2162L11.0177 18.288L11.3898 17.3598C10.636 17.0576 9.89871 16.7157 9.18107 16.3356L8.71296 17.2192ZM6.21246 14.8762L6.80668 14.0719C5.65047 13.2177 4.6836 12.3016 3.94224 11.3752L3.16146 12L2.38068 12.6248C3.24657 13.7069 4.3452 14.74 5.61824 15.6805L6.21246 14.8762ZM3.16146 12L3.94213 12.6249C4.68383 11.6984 5.65042 10.7813 6.80624 9.92837L6.21246 9.12375L5.61868 8.31913C4.3445 9.25942 3.24634 10.2938 2.38079 11.3751L3.16146 12ZM6.21246 9.12375L5.22134 8.99079C5.08744 9.98891 5.02108 10.9949 5.02271 12.002L6.02271 12.0004L7.02271 11.9988C7.02122 11.0817 7.08165 10.1656 7.20358 9.25671L6.21246 9.12375ZM6.02271 12.0004L5.02271 12.0004C5.02271 13.0414 5.0916 14.0496 5.22147 15.0102L6.21246 14.8762L7.20345 14.7423C7.08582 13.8722 7.02271 12.9536 7.02271 12.0004L6.02271 12.0004ZM7.19571 7.65488L8.17085 7.87646C8.37566 6.97516 8.64264 6.15672 8.95656 5.4437L8.04133 5.04075L7.12611 4.6378C6.75453 5.48178 6.45001 6.42359 6.22057 7.43329L7.19571 7.65488ZM8.04133 5.04075L7.90889 6.03194C8.80337 6.15146 9.74964 6.36572 10.7215 6.66712L11.0177 5.712L11.3139 4.75688C10.2495 4.42678 9.1933 4.18579 8.17378 4.04956L8.04133 5.04075ZM11.0177 5.712L10.6455 4.78385C9.82615 5.11242 9.02476 5.48417 8.24473 5.89752L8.71296 6.78113L9.18119 7.66473C9.89883 7.28445 10.6361 6.94244 11.3899 6.64015L11.0177 5.712ZM8.71296 6.78113L8.24586 5.89692C7.70814 6.18098 7.18097 6.48457 6.66539 6.80708L7.19571 7.65488L7.72603 8.50267C8.20036 8.20597 8.68536 7.92667 9.18006 7.66533L8.71296 6.78113ZM12.9812 5.71162L13.2773 6.66679C14.2484 6.36574 15.1949 6.15143 16.09 6.03152L15.9572 5.04037L15.8244 4.04923C14.8048 4.18582 13.7487 4.42676 12.6851 4.75646L12.9812 5.71162ZM15.9572 5.04037L15.0417 5.44258C15.3553 6.15656 15.623 6.97491 15.8272 7.87564L16.8025 7.6545L17.7777 7.43336C17.5484 6.42234 17.2431 5.48119 16.8728 4.63817L15.9572 5.04037ZM16.8025 7.6545L17.3327 6.80663C16.0687 6.01624 14.7373 5.33928 13.3539 4.78367L12.9812 5.71162L12.6085 6.63958C13.8823 7.15119 15.1084 7.77456 16.2723 8.50237L16.8025 7.6545ZM17.7861 9.12338L17.1919 9.92771C18.3477 10.7815 19.3153 11.6983 20.0567 12.6248L20.8375 12L21.6182 11.3752C20.7524 10.2932 19.653 9.25924 18.3803 8.31904L17.7861 9.12338ZM20.8375 12L20.0567 11.3752C19.315 12.302 18.3486 13.219 17.1926 14.0714L17.7861 14.8762L18.3796 15.6811C19.6543 14.741 20.7526 13.7065 21.6182 12.6248L20.8375 12ZM17.7861 14.8762L18.7771 15.0102C18.9069 14.0496 18.9758 13.0414 18.9758 12.0004H17.9758H16.9758C16.9758 12.9536 16.9127 13.8722 16.7951 14.7423L17.7861 14.8762ZM17.9758 12.0004H18.9758C18.9758 10.9582 18.9069 9.95009 18.7771 8.9894L17.7861 9.12338L16.7951 9.25735C16.9127 10.1274 16.9758 11.046 16.9758 12.0004H17.9758ZM11.9991 1.45312V2.45312C12.849 2.45312 13.8812 3.15444 14.7744 4.88325L15.6628 4.42425L16.5513 3.96525C15.5462 2.01981 13.9939 0.453125 11.9991 0.453125V1.45312ZM15.6628 4.42425L15.5177 3.43484C14.2691 3.61797 12.9681 3.94702 11.6693 4.40133L11.9995 5.34525L12.3296 6.28917C13.5223 5.87198 14.6993 5.57628 15.808 5.41366L15.6628 4.42425ZM11.9995 5.34525L12.3296 4.40133C11.0308 3.947 9.72937 3.61797 8.48083 3.43484L8.33571 4.42425L8.19059 5.41366C9.2993 5.57628 10.4766 5.872 11.6693 6.28917L11.9995 5.34525ZM8.33571 4.42425L9.22407 4.88339C10.1178 3.1542 11.1493 2.45312 11.9991 2.45312V1.45312V0.453125C10.0041 0.453125 8.45263 2.02005 7.44735 3.96511L8.33571 4.42425ZM2.71333 11.4116L3.53248 10.838C2.29931 9.07692 2.27681 7.85601 2.70977 7.16852L1.86358 6.63562L1.0174 6.10273C-0.0728889 7.83399 0.50836 10.0061 1.89419 11.9852L2.71333 11.4116ZM1.86358 6.63562L2.70983 7.16842C3.13288 6.49648 4.25301 5.91063 6.28596 5.91063V4.91063V3.91063C4.01691 3.91063 1.99529 4.54952 1.01734 6.10283L1.86358 6.63562ZM6.28596 4.91063V5.91063C6.58616 5.91063 6.90037 5.9249 7.2257 5.95184L7.30821 4.95525L7.39072 3.95866C7.01855 3.92785 6.64876 3.91063 6.28596 3.91063V4.91063ZM7.30821 4.95525L6.38672 4.56684C5.94985 5.60331 5.60815 6.76788 5.37644 8.02353L6.35983 8.205L7.34323 8.38647C7.55177 7.25637 7.85507 6.23244 8.2297 5.34366L7.30821 4.95525ZM6.35983 8.205L5.79282 7.38129C4.29068 8.41531 2.98303 9.57578 1.96548 10.8008L2.73471 11.4398L3.50394 12.0787C4.38464 11.0185 5.54824 9.97769 6.92685 9.02871L6.35983 8.205ZM2.73471 11.4398L3.56164 10.8774C3.54759 10.8568 3.53518 10.84 3.52675 10.8289C3.51851 10.818 3.51141 10.809 3.50885 10.8058C3.50442 10.8002 3.50676 10.8031 3.50809 10.8049C3.51032 10.8077 3.5167 10.816 3.52487 10.8273L2.71333 11.4116L1.9018 11.9959C1.91335 12.012 1.92328 12.0249 1.92916 12.0325C1.93222 12.0364 1.93483 12.0397 1.93646 12.0418C1.93728 12.0428 1.93804 12.0438 1.93851 12.0444C1.93907 12.0451 1.93928 12.0453 1.93948 12.0456C1.93987 12.0461 1.93924 12.0453 1.93818 12.0439C1.93708 12.0425 1.93508 12.0399 1.93251 12.0365C1.92763 12.0301 1.91864 12.018 1.90778 12.0021L2.73471 11.4398ZM6.28708 19.089V18.089H6.28634V19.089V20.089H6.28708V19.089ZM6.28634 19.089V18.089C4.25357 18.089 3.13353 17.5032 2.71008 16.831L1.86396 17.364L1.01784 17.897C1.99614 19.45 4.0171 20.089 6.28634 20.089V19.089ZM1.86396 17.364L2.71014 16.8311C2.27715 16.1436 2.29937 14.923 3.53283 13.1616L2.71371 12.588L1.89459 12.0144C0.508297 13.994 -0.0724809 16.1657 1.01778 17.8969L1.86396 17.364ZM2.71371 12.588L3.50077 13.2049L3.52252 13.1771L2.73546 12.5602L1.9484 11.9434L1.92665 11.9711L2.71371 12.588ZM2.73546 12.5602L1.96623 13.1992C2.98378 14.4242 4.2914 15.5847 5.79343 16.619L6.36059 15.7954L6.92774 14.9718C5.54902 14.0223 4.38539 12.9815 3.50469 11.9213L2.73546 12.5602ZM6.36059 15.7954L5.3772 15.9769C5.60888 17.232 5.95056 18.3974 6.38753 19.4337L7.30896 19.0451L8.23039 18.6566C7.85586 17.7684 7.55254 16.7438 7.34397 15.6138L6.36059 15.7954ZM7.30896 19.0451L7.22627 18.0485C6.90249 18.0754 6.58923 18.0888 6.28633 18.089L6.28708 19.089L6.28784 20.089C6.64844 20.0887 7.01643 20.0728 7.39165 20.0417L7.30896 19.0451ZM11.9991 22.5469V21.5469C11.1496 21.5469 10.1178 20.8461 9.22415 19.1164L8.33571 19.5754L7.44727 20.0344C8.45267 21.9804 10.0046 23.5469 11.9991 23.5469V22.5469ZM8.33571 19.5754L8.48088 20.5648C9.72922 20.3816 11.0301 20.0522 12.3284 19.5988L11.9987 18.6547L11.669 17.7107C10.4758 18.1273 9.2987 18.4234 8.19054 18.586L8.33571 19.5754ZM11.9987 18.6547L11.669 19.5988C12.9674 20.0522 14.2691 20.3816 15.5177 20.5648L15.6628 19.5754L15.808 18.586C14.6994 18.4234 13.5215 18.1273 12.3284 17.7107L11.9987 18.6547ZM15.6628 19.5754L14.7744 19.1164C13.8808 20.846 12.849 21.5469 11.9991 21.5469V22.5469V23.5469C13.9939 23.5469 15.5458 21.9805 16.5513 20.0344L15.6628 19.5754ZM22.135 17.3644L21.2888 16.8314C20.8654 17.5036 19.7453 18.0894 17.7126 18.0894V19.0894V20.0894C19.9818 20.0894 22.0028 19.4504 22.9811 17.8974L22.135 17.3644ZM17.7126 19.0894V18.0894C17.4113 18.0894 17.0967 18.0754 16.7714 18.0488L16.69 19.0455L16.6085 20.0422C16.9808 20.0726 17.3501 20.0894 17.7126 20.0894V19.0894ZM16.69 19.0455L17.6118 19.4332C18.0475 18.397 18.3896 17.2327 18.621 15.977L17.6376 15.7958L16.6541 15.6145C16.446 16.7438 16.1424 17.768 15.7682 18.6578L16.69 19.0455ZM17.6376 15.7958L18.2046 16.6194C19.7071 15.5851 21.0149 14.4245 22.0325 13.1986L21.2631 12.5599L20.4936 11.9212C19.6131 12.982 18.4496 14.0227 17.0705 14.9721L17.6376 15.7958ZM21.2631 12.5599L20.458 13.1531C20.4752 13.1763 20.4926 13.1988 20.5103 13.2205L21.2852 12.5884L22.0601 11.9562C22.0623 11.959 22.065 11.9624 22.0681 11.9667L21.2631 12.5599ZM21.2852 12.5884L20.4661 13.162C21.6997 14.9236 21.722 16.1439 21.2889 16.8313L22.135 17.3644L22.981 17.8975C24.0719 16.1661 23.4905 13.9942 22.1043 12.0148L21.2852 12.5884Z" fill="#446175" mask="url(#path-1-inside-1_257_7301)"/>
<path d="M11.999 14.1094C13.164 14.1094 14.1084 13.165 14.1084 12C14.1084 10.835 13.164 9.89062 11.999 9.89062C10.834 9.89062 9.88965 10.835 9.88965 12C9.88965 13.165 10.834 14.1094 11.999 14.1094Z" fill="#446175"/>
</svg>
