<svg width="25" height="25" viewBox="0 0 25 25" fill="none" xmlns="http://www.w3.org/2000/svg">
<path d="M18.102 0.00110108C17.9402 0.00751641 17.7849 0.0640488 17.6593 0.162244C17.5337 0.260439 17.4446 0.395021 17.4053 0.545862C17.3661 0.696704 17.3787 0.8557 17.4414 0.999074C17.504 1.14245 17.6134 1.26249 17.753 1.34126C20.8335 3.13406 22.599 6.35462 22.3662 9.72926C22.1335 13.1037 19.9385 16.0883 16.6353 17.4957C13.332 18.903 9.466 18.4936 6.5845 16.4341C6.50551 16.3777 6.41571 16.3367 6.32021 16.3135C6.22472 16.2904 6.12541 16.2855 6.02796 16.2992C5.9305 16.3128 5.83681 16.3448 5.75223 16.3933C5.66765 16.4417 5.59383 16.5057 5.535 16.5815C5.47617 16.6573 5.43347 16.7435 5.40934 16.8352C5.38522 16.9269 5.38014 17.0222 5.39439 17.1158C5.40865 17.2093 5.44195 17.2993 5.49242 17.3805C5.54288 17.4617 5.60951 17.5325 5.6885 17.589C6.33729 18.0526 7.03594 18.4481 7.7725 18.7689C6.0825 19.2201 5 19.9482 5 20.9145C5 22.6185 8.09525 24.0001 12.5 24.0001C16.9047 24.0001 20 22.6185 20 20.9145C20 19.9617 18.9487 19.2393 17.2987 18.7871C21.066 17.1589 23.594 13.72 23.8627 9.8243C24.1327 5.90942 22.076 2.1731 18.5303 0.109821C18.4022 0.0330147 18.2529 -0.00487842 18.102 0.00110108ZM8.91025 19.1953C9.79005 19.4743 10.7014 19.6512 11.625 19.7224V20.2192C11.625 20.3926 11.7172 20.559 11.8813 20.6816C12.0454 20.8043 12.2679 20.8732 12.5 20.8732C12.7321 20.8732 12.9546 20.8043 13.1187 20.6816C13.2828 20.559 13.375 20.3926 13.375 20.2192V19.7317C14.322 19.6672 15.2572 19.4915 16.1597 19.2085C17.5787 19.5078 18.5 19.9744 18.5 20.5033C18.5 21.4122 15.8138 22.149 12.5 22.149C9.18625 22.149 6.5 21.4122 6.5 20.5033C6.5 19.9672 7.44675 19.4944 8.91025 19.1953Z" fill="#446175"/>
<path d="M15.9471 1.29301C11.4721 -0.449391 6.36615 1.62373 4.55115 5.91949C2.73614 10.215 4.89565 15.1168 9.37065 16.8587C13.8371 18.598 18.9319 16.5347 20.7554 12.255C20.7595 12.2477 20.7631 12.2401 20.7664 12.2325C20.7693 12.2255 20.7719 12.2185 20.7741 12.2113C22.5731 7.92085 20.4146 3.03229 15.9471 1.29301ZM15.6971 1.74085C15.8429 1.81309 15.9861 1.88965 16.1236 1.97557C15.9896 2.32309 15.7986 2.99509 15.1096 2.70037C14.5221 2.50765 13.4471 3.54853 13.5061 2.51797C13.7399 2.06893 14.9664 1.45789 13.8181 1.40677C13.4791 1.61965 13.3021 2.19229 12.9331 1.97317C12.5861 2.40637 12.3126 1.96117 12.3231 1.71877C12.0876 1.75189 12.3031 2.15557 12.0281 2.21893C12.8129 2.06101 11.8686 2.73637 12.1239 3.10405C11.6561 3.28333 11.9229 4.31125 11.2976 3.83413C10.6856 3.47941 12.1414 3.23917 11.2001 3.25789C10.6506 3.17029 10.5611 3.45685 10.9074 3.67621C10.4404 3.84925 10.0021 3.69805 9.8594 3.48277C9.21265 3.59725 8.55815 3.79549 7.9424 4.08757C7.3094 3.87397 6.93865 5.13709 6.6919 4.89781C6.81565 4.51453 7.1999 3.96805 6.7669 3.90037C6.6804 3.82981 6.5719 3.83653 6.45715 3.88981C8.6874 1.43005 12.3674 0.469569 15.6971 1.74085ZM16.7669 2.23765C16.8657 2.29221 16.9629 2.34861 17.0584 2.40685C17.1746 2.51101 17.2351 2.61421 17.0166 2.55805L16.8736 2.43925C16.7661 2.30773 16.7444 2.25037 16.7669 2.23765ZM18.3539 3.37957C20.7109 5.55061 21.5836 8.95813 20.2801 12.0431C19.4196 14.08 17.7759 15.5833 15.8186 16.3655C16.1546 16.0098 16.4349 15.5773 16.8806 15.3436C17.3366 14.788 16.8551 14.0764 17.4864 13.6444C17.1359 13.5527 16.7056 12.9395 16.1154 13.3175C15.6904 13.1584 15.0846 13.4641 14.7944 13.0684C14.3981 12.568 13.9464 11.9872 14.0551 11.3221C14.3189 10.8733 14.4239 10.2071 14.6561 9.78613C15.2106 9.11725 16.0321 8.90533 16.4796 8.20525C16.5524 8.18077 17.1526 8.01685 17.1776 8.00989C17.7906 8.08813 18.9064 7.52701 18.8756 8.51317C18.9556 8.63581 19.5566 9.29557 19.6106 8.98069C19.8194 8.53717 20.9681 9.26893 20.5741 8.42917C20.5234 8.36557 20.2999 8.19613 20.1129 8.17573C20.0371 8.16445 19.6064 8.36461 19.5319 7.84165C19.2889 7.34029 19.1156 8.76901 18.8721 7.90093C19.4839 7.93861 18.5144 6.86125 18.6549 7.32301C18.7864 8.17741 18.1894 7.41757 18.5331 6.99781C17.8849 6.65173 17.6964 8.01037 16.9764 7.95013C16.9804 7.95253 16.9854 7.95349 16.9896 7.95565L16.8721 7.92613L16.6934 7.87429C16.6009 7.65829 16.1489 7.45981 16.4741 7.06597C16.3876 6.47029 16.7534 6.39853 17.2476 6.64381C17.9001 6.52717 16.4656 5.52469 17.5609 5.75749C17.1006 5.61037 16.9059 5.55373 17.0724 4.99981C16.8654 5.68669 16.1524 4.93021 16.7934 4.72309C17.0241 4.67677 16.5271 4.20541 17.0639 4.31965C17.4071 4.43341 17.5174 5.99893 17.9701 5.26189C18.2284 5.28037 17.9639 4.68901 18.0789 4.70749C17.4071 4.65805 17.6569 3.58765 17.8109 3.21061C18.0049 3.29461 18.2109 3.35701 18.3539 3.37957ZM12.7281 1.48357C12.6831 1.47205 12.5881 1.47733 12.4256 1.51477C12.2406 1.51861 11.7564 1.79605 12.2511 1.64389C12.5471 1.70773 12.8631 1.51861 12.7281 1.48357ZM18.3161 3.88765C18.2364 3.86341 18.4056 4.15525 18.3666 3.91957C18.3519 3.9062 18.3348 3.8954 18.3161 3.88765ZM11.7509 1.43509C11.6871 1.40509 11.5784 1.39549 11.4109 1.41901C10.9536 1.28293 10.5361 2.20717 10.5726 2.15581C10.7389 2.12317 10.9626 1.91197 11.1259 1.99285C11.4549 2.08453 12.0269 1.56565 11.7509 1.43509ZM15.8361 3.04549C16.1604 3.15685 16.5579 3.59557 15.8306 3.40861C15.7184 3.36445 15.6031 3.29725 15.5514 3.18589C15.5564 3.01165 15.6889 2.99485 15.8361 3.04549ZM18.2374 4.12189C18.1091 4.05853 18.5659 4.73941 18.4339 4.30765C18.3279 4.19077 18.2669 4.13653 18.2374 4.12189ZM16.8026 3.84277C16.8476 3.84157 16.8304 4.07557 16.7611 3.88933C16.7784 3.85573 16.7924 3.84301 16.8026 3.84277ZM17.2451 4.14661C17.2726 4.16677 17.2911 4.43965 17.2176 4.23781C17.2259 4.16101 17.2359 4.13989 17.2451 4.14661ZM18.6326 4.68853C18.5656 4.66285 18.5421 4.73221 18.6716 4.98205C18.6211 5.26405 18.4286 5.33485 18.8289 5.21821C18.9776 5.03941 18.7444 4.73173 18.6326 4.68853ZM9.44465 2.21245C9.3539 2.16445 9.2614 2.61565 9.50315 2.34037C9.4864 2.26117 9.46565 2.22349 9.44465 2.21245ZM10.8726 2.98261C10.8126 2.95861 10.8111 3.11629 10.9484 3.08101C10.9186 3.01885 10.8924 2.99053 10.8726 2.98261ZM20.0739 6.63013C19.9439 6.59581 20.0039 7.54933 20.2529 7.22245C20.7879 7.34413 20.3814 6.70597 20.1939 6.83965C20.1439 6.69877 20.1039 6.63805 20.0739 6.63013ZM9.29315 2.60317C9.21265 2.59021 8.9849 3.00709 9.31665 2.63845C9.31315 2.61565 9.30465 2.60485 9.29315 2.60317ZM18.9151 6.86077C18.8869 6.85837 18.9189 6.94357 19.0666 7.17757C19.1516 7.18525 19.3841 7.66525 19.3761 7.44349C19.2911 7.25197 19.0156 6.91717 18.9311 6.86749C18.9262 6.86445 18.9208 6.86202 18.9151 6.86077ZM8.9199 2.97373C8.84615 2.92717 8.57915 3.12805 8.9299 3.05197C8.9434 3.00853 8.93665 2.98453 8.9199 2.97373ZM19.8599 7.63789C19.8106 7.63885 19.8931 7.97821 19.9586 7.78237C19.9074 7.67509 19.8764 7.63765 19.8599 7.63789ZM18.0419 7.34989C18.1494 7.37389 17.9009 7.79581 17.7976 7.49965C17.9309 7.37773 18.0061 7.34173 18.0419 7.34965M20.0409 8.31037C20.1564 8.33941 20.1246 8.67541 19.8784 8.41717C19.9471 8.32525 20.0024 8.30077 20.0409 8.31037ZM13.9334 6.43621C14.0476 6.49261 13.9479 6.66805 13.7434 6.43933C13.8334 6.41197 13.8951 6.41749 13.9334 6.43621ZM14.2414 6.69253C14.2821 6.72877 14.1169 6.85861 14.1176 6.70141C14.1909 6.67861 14.2276 6.68053 14.2414 6.69253ZM15.1949 7.98421C15.2686 7.99477 15.1406 8.21485 15.1079 8.01781C15.1501 7.99045 15.1779 7.98181 15.1949 7.98421ZM7.0324 4.88389C7.0769 4.90069 7.04115 5.25733 6.9594 5.01493C6.9934 4.91029 7.01765 4.87813 7.0324 4.88389ZM6.8354 5.10661C6.8769 5.13109 6.6829 5.53021 6.6989 5.24605C6.7814 5.13181 6.8214 5.09845 6.8354 5.10661ZM5.9999 4.92709C6.0709 5.01157 5.54165 5.55565 5.5724 5.75077C5.6924 6.33061 4.82815 6.94597 5.5034 7.39261C5.9724 7.00621 6.0294 7.54477 6.11265 7.50853C6.37165 7.56157 6.30165 8.20141 6.76765 8.29285C7.29165 8.43757 6.64265 9.28885 7.2834 9.66037C8.0219 10.2189 7.4804 11.2617 8.3454 11.7541C8.7609 12.2725 10.2304 13.0007 9.3969 13.6557C8.56415 13.6605 8.4944 15.0865 7.5464 14.4335C7.2879 14.4076 7.0929 14.5924 6.8574 14.6754C6.06883 13.9211 5.44796 13.021 5.0324 12.0297C4.87714 11.2633 4.49565 10.5467 4.5224 9.74629C4.25115 8.83669 5.0219 8.27269 5.21365 7.50901C5.34165 7.11469 4.98664 7.68565 5.0584 7.15045C5.02465 6.67765 5.1754 6.12901 5.2569 5.63797C5.39023 5.37344 5.53879 5.11625 5.7019 4.86757C5.68693 4.91906 5.68152 4.97268 5.6859 5.02597C5.8859 4.92229 5.97615 4.89901 5.9999 4.92709ZM6.3269 5.06149C6.37015 5.08357 6.4264 5.12413 6.4994 5.18749C6.4774 5.68189 6.85465 5.99221 6.6509 6.13429C6.91465 6.37765 7.1314 7.12933 6.4974 6.58381C6.0849 6.20101 6.82165 6.28861 6.3024 5.91109C6.37915 5.66677 6.0254 4.90789 6.3269 5.06149ZM15.4711 8.76061C15.5449 8.78917 15.4821 9.09757 15.2856 8.96269C15.3756 8.79229 15.4376 8.74741 15.4711 8.76061ZM6.83565 5.54629C6.86465 5.56693 6.88015 5.67229 6.80615 5.76397L6.77915 5.72605C6.7789 5.59717 6.80115 5.54701 6.82265 5.54293C6.82494 5.54264 6.82726 5.54279 6.8295 5.54336C6.83173 5.54394 6.83382 5.54493 6.83565 5.54629ZM14.8576 8.68477C15.0721 8.75485 15.3756 9.06397 14.8881 8.89213L14.7261 8.82901L14.7031 8.80501C14.6811 8.67061 14.7601 8.65285 14.8576 8.68477ZM6.13915 5.95117C6.22515 6.00637 6.37415 6.40165 6.1064 6.17605C6.07415 5.97085 6.10015 5.92597 6.13915 5.95117ZM7.0234 6.80581C7.14615 6.83725 7.1759 7.20037 6.87815 6.92101C6.9309 6.82165 6.98265 6.79549 7.0234 6.80581ZM7.3524 7.59469C7.3924 7.63093 7.14515 8.33389 7.15565 7.96021L7.1969 7.84501C7.29415 7.64437 7.3394 7.58269 7.3524 7.59469ZM12.8471 10.2659C12.9321 10.3098 13.1396 10.5957 12.8641 10.4219C12.7954 10.2762 12.8084 10.2462 12.8471 10.2659ZM13.2421 10.5313C13.3231 10.5616 13.1939 10.7855 13.1489 10.5496C13.1936 10.528 13.2234 10.5244 13.2421 10.5313ZM13.0834 10.7082C13.2151 10.737 13.0181 10.9348 12.9341 10.7224C13.0051 10.7039 13.0529 10.7017 13.0834 10.7082ZM12.8611 10.6566C12.9049 10.6789 12.7894 10.8808 12.7556 10.7142C12.8146 10.6614 12.8466 10.6492 12.8611 10.6566ZM16.9874 13.9513C17.0311 13.9737 16.9156 14.1755 16.8819 14.0089C16.9409 13.9561 16.9729 13.9439 16.9874 13.9513Z" fill="#446175"/>
</svg>
