<svg width="24" height="24" viewBox="0 0 24 24" fill="none" xmlns="http://www.w3.org/2000/svg">
<path d="M14 2H10C6.72 2 5.081 2 3.919 2.814C3.48904 3.11507 3.11507 3.48904 2.814 3.919C2 5.08 2 6.72 2 10C2 13.28 2 14.919 2.814 16.081C3.11507 16.511 3.48904 16.8849 3.919 17.186C5.08 18 6.72 18 10 18H14C17.28 18 18.919 18 20.081 17.186C20.511 16.8849 20.8849 16.511 21.186 16.081C22 14.92 22 13.28 22 10C22 6.72 22 5.081 21.186 3.919C20.8849 3.48904 20.511 3.11507 20.081 2.814C18.92 2 17.28 2 14 2Z" stroke="#446175" stroke-width="1.875" stroke-linecap="round"/>
<path d="M16 8L17.227 9.057C17.742 9.502 18 9.724 18 10C18 10.276 17.742 10.498 17.227 10.943L16 12M8 8L6.773 9.057C6.258 9.502 6 9.724 6 10C6 10.276 6.258 10.498 6.773 10.943L8 12M13 7L11 13" stroke="#446175" stroke-width="1.875" stroke-linecap="round" stroke-linejoin="round"/>
<path d="M14.656 22L14.236 21.581C13.7755 21.1206 13.4716 20.527 13.3675 19.8842C13.2634 19.2414 13.3643 18.5822 13.656 18M9 22L9.42 21.581C9.88052 21.1206 10.1844 20.527 10.2885 19.8842C10.3926 19.2414 10.2917 18.5822 10 18M7 22H17" stroke="#446175" stroke-width="1.875" stroke-linecap="round"/>
</svg>
