<svg width="24" height="24" viewBox="0 0 24 24" fill="none" xmlns="http://www.w3.org/2000/svg">
<path d="M2.75 6.24805H9.75ZM6.25 2.74805V9.74805ZM14.25 6.24805H21.25ZM3.45 20.552L6.25 17.752ZM6.25 17.752L9.05 14.952ZM6.25 17.752L3.45 14.952ZM6.25 17.752L9.05 20.552ZM14.25 15.652H21.25ZM14.25 19.852H21.25Z" fill="#446175"/>
<path d="M2.75 6.24805H9.75M6.25 2.74805V9.74805M14.25 6.24805H21.25M3.45 20.552L6.25 17.752M6.25 17.752L9.05 14.952M6.25 17.752L3.45 14.952M6.25 17.752L9.05 20.552M14.25 15.652H21.25M14.25 19.852H21.25" stroke="#446175" stroke-width="1.875" stroke-linecap="round"/>
</svg>
