<svg width="23" height="19" viewBox="0 0 23 19" fill="none" xmlns="http://www.w3.org/2000/svg">
<path d="M20.25 10.5C19.9944 10.4999 19.7407 10.5436 19.5 10.6294V10.5C19.5 6.58313 16.5872 4.64438 14.46 3.22875C13.14 2.34938 12 1.59375 12 0.75C12 0.551088 11.921 0.360322 11.7803 0.21967C11.6397 0.0790176 11.4489 0 11.25 0C11.0511 0 10.8603 0.0790176 10.7197 0.21967C10.579 0.360322 10.5 0.551088 10.5 0.75C10.5 1.59375 9.36 2.34938 8.04 3.22875C5.91281 4.64438 3 6.58313 3 10.5V10.6294C2.66069 10.5094 2.29754 10.4726 1.94106 10.522C1.58457 10.5714 1.24513 10.7056 0.951246 10.9134C0.657359 11.1211 0.417593 11.3963 0.252074 11.7159C0.0865543 12.0355 0.000111217 12.3901 0 12.75V18C0 18.1989 0.0790176 18.3897 0.21967 18.5303C0.360322 18.671 0.551088 18.75 0.75 18.75H6.75C6.94891 18.75 7.13968 18.671 7.28033 18.5303C7.42098 18.3897 7.5 18.1989 7.5 18V15C7.5 14.8011 7.57902 14.6103 7.71967 14.4697C7.86032 14.329 8.05109 14.25 8.25 14.25C8.44891 14.25 8.63968 14.329 8.78033 14.4697C8.92098 14.6103 9 14.8011 9 15V18C9 18.1989 9.07902 18.3897 9.21967 18.5303C9.36032 18.671 9.55109 18.75 9.75 18.75H12.75C12.9489 18.75 13.1397 18.671 13.2803 18.5303C13.421 18.3897 13.5 18.1989 13.5 18V15C13.5 14.8011 13.579 14.6103 13.7197 14.4697C13.8603 14.329 14.0511 14.25 14.25 14.25C14.4489 14.25 14.6397 14.329 14.7803 14.4697C14.921 14.6103 15 14.8011 15 15V18C15 18.1989 15.079 18.3897 15.2197 18.5303C15.3603 18.671 15.5511 18.75 15.75 18.75H21.75C21.9489 18.75 22.1397 18.671 22.2803 18.5303C22.421 18.3897 22.5 18.1989 22.5 18V12.75C22.5 12.1533 22.263 11.581 21.841 11.159C21.419 10.7371 20.8467 10.5 20.25 10.5ZM8.87156 4.4775C9.77813 3.87375 10.6528 3.28875 11.25 2.6025C11.8444 3.29156 12.7219 3.87656 13.6284 4.4775C15.5034 5.72625 17.6109 7.12969 17.9513 9.75H4.545C4.88906 7.12969 6.99375 5.72625 8.87156 4.4775ZM1.5 12.75C1.5 12.5511 1.57902 12.3603 1.71967 12.2197C1.86032 12.079 2.05109 12 2.25 12C2.44891 12 2.63968 12.079 2.78033 12.2197C2.92098 12.3603 3 12.5511 3 12.75V17.25H1.5V12.75ZM14.25 12.75C13.6533 12.75 13.081 12.9871 12.659 13.409C12.2371 13.831 12 14.4033 12 15V17.25H10.5V15C10.5 14.4033 10.2629 13.831 9.84099 13.409C9.41903 12.9871 8.84674 12.75 8.25 12.75C7.65326 12.75 7.08097 12.9871 6.65901 13.409C6.23705 13.831 6 14.4033 6 15V17.25H4.5V11.25H18V17.25H16.5V15C16.5 14.4033 16.263 13.831 15.841 13.409C15.419 12.9871 14.8467 12.75 14.25 12.75ZM21 17.25H19.5V12.75C19.5 12.5511 19.579 12.3603 19.7197 12.2197C19.8603 12.079 20.0511 12 20.25 12C20.4489 12 20.6397 12.079 20.7803 12.2197C20.921 12.3603 21 12.5511 21 12.75V17.25Z" fill="#446175"/>
</svg>
