<svg width="31" height="13" viewBox="0 0 31 13" fill="none" xmlns="http://www.w3.org/2000/svg">
<path d="M5.68613 1.64583C6.04037 1.20277 6.28073 0.607931 6.21728 0C5.69874 0.0257817 5.066 0.342112 4.69964 0.785493C4.3707 1.16519 4.07958 1.785 4.15547 2.36739C4.73762 2.41782 5.31913 2.07644 5.68613 1.64583Z" fill="black"/>
<path d="M6.21076 2.4814C5.36546 2.43105 4.64673 2.96115 4.24311 2.96115C3.83925 2.96115 3.22105 2.50678 2.55243 2.51898C1.68223 2.53175 0.874755 3.02379 0.433152 3.80637C-0.475108 5.37186 0.193439 7.69399 1.07673 8.96902C1.50564 9.59982 2.02257 10.2943 2.70372 10.2694C3.3473 10.2442 3.59954 9.85271 4.3818 9.85271C5.16349 9.85271 5.39068 10.2694 6.072 10.2568C6.77845 10.2442 7.22013 9.62568 7.64905 8.99431C8.14108 8.27525 8.34257 7.58093 8.35526 7.54286C8.34257 7.53025 6.99295 7.01252 6.9805 5.46004C6.96773 4.16012 8.04006 3.54184 8.09057 3.50345C7.48498 2.60772 6.53882 2.5067 6.21076 2.4814Z" fill="black"/>
<path d="M13.5707 0.72168C15.408 0.72168 16.6873 1.98814 16.6873 3.83197C16.6873 5.68236 15.3817 6.95536 13.5246 6.95536H11.4905V10.1903H10.0208V0.72168H13.5707ZM11.4905 5.72172H13.1769C14.4565 5.72172 15.1847 5.0328 15.1847 3.83852C15.1847 2.64432 14.4564 1.96187 13.1834 1.96187H11.4905V5.72172Z" fill="black"/>
<path d="M17.0715 8.22891C17.0715 7.02145 17.9968 6.28001 19.6373 6.18812L21.527 6.07658V5.54511C21.527 4.77731 21.0086 4.31801 20.1426 4.31801C19.3222 4.31801 18.8104 4.71161 18.6858 5.32851H17.3473C17.426 4.08169 18.489 3.16309 20.1951 3.16309C21.8683 3.16309 22.9378 4.04896 22.9378 5.43341V10.1907H21.5795V9.05546H21.5468C21.1466 9.82326 20.2738 10.3087 19.3684 10.3087C18.0165 10.3089 17.0715 9.46902 17.0715 8.22891ZM21.5269 7.60554V7.06089L19.8273 7.1658C18.9808 7.22488 18.5019 7.59892 18.5019 8.18947C18.5019 8.79304 19.0006 9.1868 19.7617 9.1868C20.7526 9.18688 21.5269 8.50443 21.5269 7.60554Z" fill="black"/>
<path d="M24.2203 12.7295V11.5811C24.3251 11.6073 24.5613 11.6073 24.6795 11.6073C25.3356 11.6073 25.69 11.3318 25.9064 10.6232C25.9064 10.61 26.0312 10.2032 26.0312 10.1967L23.5378 3.28711H25.0731L26.8187 8.90405H26.8449L28.5905 3.28711H30.0865L27.501 10.5509C26.9106 12.2242 26.2282 12.7623 24.7978 12.7623C24.6795 12.7623 24.3251 12.7492 24.2203 12.7295Z" fill="black"/>
</svg>
