<svg width="26" height="29" viewBox="0 0 26 29" fill="none" xmlns="http://www.w3.org/2000/svg">
<path d="M22.75 5.41667L21.9233 18.7833C21.7127 22.198 21.6073 23.906 20.75 25.134C20.3268 25.7409 19.7819 26.2531 19.15 26.638C17.874 27.4167 16.1633 27.4167 12.742 27.4167C9.31533 27.4167 7.602 27.4167 6.32333 26.6367C5.69118 26.251 5.14628 25.7379 4.72333 25.13C3.86733 23.9007 3.76333 22.19 3.558 18.77L2.75 5.41667M0.75 5.41667H24.75M18.158 5.41667L17.2473 3.53933C16.6433 2.29133 16.3407 1.66867 15.8193 1.27933C15.7035 1.19309 15.5809 1.11639 15.4527 1.05C14.8753 0.75 14.182 0.75 12.7967 0.75C11.3753 0.75 10.6647 0.75 10.0767 1.062C9.94669 1.13161 9.82271 1.21189 9.706 1.302C9.17933 1.706 8.88467 2.35267 8.29533 3.64467L7.48733 5.41667M9.41667 20.0833V12.0833M16.0833 20.0833V12.0833" stroke="#B30505" stroke-width="1.5" stroke-linecap="round"/>
</svg>
