<svg width="28" height="28" viewBox="0 0 28 28" fill="none" xmlns="http://www.w3.org/2000/svg">
<path d="M8.89506 27.0344L9.38004 23.9539L8.29972 23.9289H3.14111L6.72608 1.19774C6.73676 1.12829 6.77203 1.06498 6.82548 1.01936C6.87893 0.973745 6.94699 0.948852 7.01726 0.949223H15.7154C18.603 0.949223 20.5958 1.55012 21.6363 2.73615C22.124 3.29253 22.4347 3.87395 22.5849 4.5138C22.7425 5.18517 22.7453 5.98729 22.5914 6.9656L22.5803 7.037V7.66386L23.068 7.9402C23.4404 8.12885 23.7751 8.38405 24.0556 8.69317C24.4729 9.16888 24.7427 9.77349 24.8568 10.4903C24.9746 11.2275 24.9356 12.1047 24.7427 13.0979C24.5202 14.2403 24.1604 15.2353 23.6745 16.0495C23.2458 16.7789 22.6693 17.4106 21.9821 17.9041C21.3367 18.3622 20.5699 18.71 19.7028 18.9325C18.8627 19.1514 17.9048 19.2617 16.8541 19.2617H16.1772C15.6931 19.2617 15.223 19.436 14.8539 19.7485C14.4854 20.0644 14.2409 20.5008 14.164 20.98L14.113 21.2573L13.2562 26.6867L13.2172 26.886C13.207 26.9491 13.1894 26.9806 13.1635 27.0019C13.1383 27.0225 13.1069 27.034 13.0744 27.0344H8.89506Z" fill="#253B80"/>
<path d="M23.5298 7.10938C23.5039 7.27536 23.4742 7.44506 23.4408 7.61939C22.2937 13.5087 18.3694 15.5432 13.3573 15.5432H10.8053C10.1924 15.5432 9.67586 15.9884 9.58034 16.593L8.27377 24.8794L7.90377 27.2283C7.88903 27.3214 7.89466 27.4167 7.92026 27.5075C7.94587 27.5983 7.99085 27.6824 8.0521 27.7542C8.11335 27.8259 8.18942 27.8835 8.27507 27.923C8.36072 27.9626 8.45392 27.983 8.54825 27.9831H13.0744C13.6104 27.9831 14.0657 27.5936 14.1501 27.0651L14.1946 26.8351L15.0468 21.427L15.1015 21.1303C15.185 20.5999 15.6412 20.2104 16.1772 20.2104H16.8542C21.2394 20.2104 24.6723 18.43 25.6756 13.2778C26.0948 11.1255 25.8778 9.32842 24.7687 8.0645C24.4172 7.67351 23.9974 7.34985 23.5298 7.10938Z" fill="#179BD7"/>
<path d="M22.3299 6.63081C21.9636 6.52485 21.591 6.44216 21.2143 6.38321C20.47 6.26882 19.7177 6.21394 18.9647 6.21908H12.1471C11.8877 6.21888 11.6367 6.31151 11.4396 6.48022C11.2425 6.64893 11.1122 6.88259 11.0724 7.13897L9.62205 16.3249L9.58032 16.5929C9.6255 16.3005 9.77386 16.0339 9.99854 15.8413C10.2232 15.6488 10.5094 15.543 10.8053 15.5432H13.3572C18.3693 15.5432 22.2937 13.5077 23.4408 7.61932C23.4751 7.44498 23.5038 7.27528 23.5298 7.1093C23.2271 6.95057 22.9116 6.8175 22.5867 6.71148C22.5015 6.68322 22.4159 6.65632 22.3299 6.63081Z" fill="#222D65"/>
<path d="M11.0725 7.13935C11.112 6.8829 11.2422 6.64913 11.4394 6.4805C11.6367 6.31187 11.8878 6.21958 12.1473 6.22039H18.9649C19.7725 6.22039 20.5264 6.27324 21.2145 6.38452C21.6801 6.4577 22.1393 6.56714 22.5878 6.71186C22.9263 6.82406 23.2407 6.95667 23.5309 7.10967C23.8722 4.93328 23.5281 3.45144 22.3514 2.10963C21.0541 0.632424 18.7126 0 15.7165 0H7.01834C6.40631 0 5.88424 0.445108 5.78965 1.05064L2.16666 24.0154C2.14978 24.1221 2.15621 24.2311 2.18548 24.335C2.21475 24.4389 2.26619 24.5352 2.33624 24.6173C2.4063 24.6995 2.49331 24.7654 2.5913 24.8107C2.68929 24.856 2.79592 24.8795 2.90387 24.8797H8.27391L9.62222 16.3253L11.0725 7.13935Z" fill="#253B80"/>
</svg>
