<svg width="14" height="14" viewBox="0 0 14 14" fill="none" xmlns="http://www.w3.org/2000/svg">
<path d="M7 5.99903C6.17533 5.99903 5.469 5.70503 4.881 5.11703C4.293 4.52903 3.99933 3.82303 4 2.99903C4.00067 2.17503 4.29433 1.46836 4.881 0.879028C5.46767 0.289694 6.174 -0.00330521 7 2.81215e-05C7.826 0.00336145 8.53233 0.296694 9.119 0.880028C9.70567 1.46336 9.99933 2.17003 10 3.00003C10.0007 3.83003 9.707 4.53603 9.119 5.11803C8.531 5.70003 7.82467 5.99303 7 5.99903ZM0 13.23V11.584C0 11.1714 0.12 10.7854 0.36 10.426C0.600667 10.066 0.924 9.78669 1.33 9.58803C2.274 9.13536 3.21867 8.79603 4.164 8.57003C5.10867 8.34336 6.054 8.23003 7 8.23003C7.946 8.23003 8.89167 8.34336 9.837 8.57003C10.7823 8.79669 11.7263 9.13603 12.669 9.58803C13.0757 9.78669 13.399 10.066 13.639 10.426C13.8797 10.7854 14 11.1714 14 11.584V13.23H0ZM1 12.23H13V11.584C13 11.3627 12.9283 11.1544 12.785 10.959C12.6423 10.7644 12.4447 10.5997 12.192 10.465C11.3693 10.0664 10.5207 9.76103 9.646 9.54903C8.77133 9.33703 7.88933 9.23069 7 9.23003C6.11067 9.22936 5.22867 9.33536 4.354 9.54803C3.47933 9.76069 2.63067 10.066 1.808 10.464C1.55467 10.5987 1.357 10.7634 1.215 10.958C1.07167 11.1534 1 11.362 1 11.584V12.23ZM7 5.00003C7.55 5.00003 8.021 4.80403 8.413 4.41203C8.805 4.02003 9.00067 3.54869 9 2.99803C8.99933 2.44736 8.80367 1.97669 8.413 1.58603C8.02233 1.19536 7.55133 0.999361 7 0.998028C6.44867 0.996694 5.978 1.19269 5.588 1.58603C5.198 1.97936 5.002 2.45003 5 2.99803C4.998 3.54603 5.194 4.01703 5.588 4.41103C5.982 4.80503 6.45267 5.00069 7 4.99803" fill="#637381"/>
</svg>
