<svg width="214" height="192" viewBox="0 0 214 192" fill="none" xmlns="http://www.w3.org/2000/svg">
<path d="M37.5 6.5L61.5 38.5" stroke="#0F0F0F" stroke-width="2.4" stroke-linecap="round" stroke-linejoin="round"/>
<path d="M62.5 15.5L86.5 47.5" stroke="#167F71" stroke-width="2.4" stroke-linecap="round" stroke-linejoin="round"/>
<path fill-rule="evenodd" clip-rule="evenodd" d="M170.829 29.0004L162.321 45.0362L143.277 47.8381L157.035 61.2557L153.776 80.0817L170.806 71.1862L187.833 80.0817L184.564 61.2557L197.999 47.8381L179.342 45.0362L170.829 29.0004ZM41.9941 29.0005L33.4718 45.0363L14.5 47.8382L28.2004 61.2558L24.9349 80.0818L41.9562 71.1863L58.9833 80.0818L55.7178 61.2558L69.5436 47.8382L50.5018 45.0363L41.9941 29.0005Z" fill="#FFB62A"/>
<path fill-rule="evenodd" clip-rule="evenodd" d="M41.9934 29.0005V71.1863L59.0205 80.0818L55.7521 61.2558L69.5429 47.8382L50.5011 45.0363L41.9934 29.0005Z" fill="#FFB62A"/>
<path fill-rule="evenodd" clip-rule="evenodd" d="M132.199 100.781C129.672 100.781 127.677 98.8014 127.677 96.2619V91.7515H82.3485V96.2619C82.3485 98.8014 80.3718 100.781 77.8323 100.781H64.2397V140.757C64.2397 164.778 80.5379 185.803 103.921 191.689L105.003 191.952L106.076 191.689C129.468 185.803 145.763 164.755 145.763 140.757V100.781H132.199Z" fill="#F5F5F5"/>
<path fill-rule="evenodd" clip-rule="evenodd" d="M145.786 100.781V140.757C145.786 164.779 129.488 185.803 106.108 191.69L105.029 191.952V91.7166H127.678V96.2386C127.678 98.7781 129.672 100.761 132.2 100.761H145.786V100.781Z" fill="#E7E7F2"/>
<path fill-rule="evenodd" clip-rule="evenodd" d="M132.199 109.848C126.312 109.848 121.242 106.032 119.432 100.781H90.6284C88.7274 106.204 83.6047 109.848 77.8493 109.848H73.3418V140.78C73.3418 160.268 86.2783 177.409 105.058 182.68C123.805 177.429 136.776 160.268 136.776 140.78V109.848H132.199Z" fill="#26BFA6"/>
<path fill-rule="evenodd" clip-rule="evenodd" d="M136.721 109.848V140.78C136.721 160.268 123.772 177.409 105.005 182.68V100.781H119.399C121.212 106.032 126.291 109.848 132.175 109.848H136.721Z" fill="#26BFA6"/>
<path fill-rule="evenodd" clip-rule="evenodd" d="M133.947 47.8377L114.906 45.0358L106.398 29L97.8785 45.0358L78.8513 47.8377L92.6042 61.2553L89.3358 80.0813L106.363 71.1858L123.39 80.0813L120.133 61.2553L133.947 47.8377Z" fill="#FFB62A"/>
<path fill-rule="evenodd" clip-rule="evenodd" d="M121.767 135.976L105.002 152.829L100.483 157.354L88.2378 145.018L94.5967 138.665L100.483 144.458L105.002 139.936L115.411 129.617L121.767 135.976Z" fill="#F5F5F5"/>
<path fill-rule="evenodd" clip-rule="evenodd" d="M123.426 80.0818L106.399 71.1863V29.0005L114.904 45.0363L133.946 47.8382L120.19 61.2558L123.426 80.0818Z" fill="#FFB62A"/>
<path fill-rule="evenodd" clip-rule="evenodd" d="M121.767 135.976L105.002 152.828V139.973L115.411 129.655L121.767 135.976Z" fill="#E7E7F2"/>
<path fill-rule="evenodd" clip-rule="evenodd" d="M175 13.5L169.71 16.2812L170.72 10.3906L166.44 6.21885L172.355 5.35942L175 0L177.645 5.35942L183.56 6.21885L179.28 10.3906L180.29 16.2812L175 13.5Z" fill="#FCC202"/>
<path fill-rule="evenodd" clip-rule="evenodd" d="M207 71L214 85H200L207 71Z" fill="#167F71"/>
<circle cx="164" cy="57" r="6" fill="#472D2D"/>
<path fill-rule="evenodd" clip-rule="evenodd" d="M9 134.5L3.70993 137.281L4.72025 131.391L0.440491 127.219L6.35497 126.359L9 121L11.645 126.359L17.5595 127.219L13.2798 131.391L14.2901 137.281L9 134.5Z" fill="#FF001E"/>
<path fill-rule="evenodd" clip-rule="evenodd" d="M39 178L46 192H32L39 178Z" fill="#332DA1"/>
<circle cx="37" cy="147" r="4" fill="#167F71"/>
<circle cx="20" cy="47" r="6" fill="#FF6B00"/>
</svg>
