<svg width="18" height="21" viewBox="0 0 18 21" fill="none" xmlns="http://www.w3.org/2000/svg">
<path d="M13.379 13.495C13.127 13.0381 13.0452 12.5066 13.148 11.995H2.248C1.6517 11.9953 1.07992 12.2323 0.658363 12.6541C0.23681 13.0758 -5.89461e-08 13.6477 0 14.244V14.822C0 15.714 0.318 16.578 0.898 17.257C2.464 19.091 4.85 19.997 7.996 19.997C8.386 19.997 8.763 19.982 9.129 19.954C8.95494 19.4686 8.95211 18.9382 9.121 18.451C8.761 18.481 8.387 18.496 7.996 18.496C5.258 18.496 3.292 17.75 2.039 16.283C1.69057 15.8756 1.49908 15.3571 1.499 14.821V14.244C1.499 14.0451 1.57802 13.8543 1.71867 13.7137C1.85932 13.573 2.05009 13.494 2.249 13.494H13.379V13.495ZM7.996 0C8.65261 -9.78424e-09 9.30279 0.129329 9.90942 0.380602C10.516 0.631876 11.0672 1.00017 11.5315 1.46447C11.9958 1.92876 12.3641 2.47995 12.6154 3.08658C12.8667 3.69321 12.996 4.34339 12.996 5C12.996 5.65661 12.8667 6.30679 12.6154 6.91342C12.3641 7.52004 11.9958 8.07124 11.5315 8.53553C11.0672 8.99983 10.516 9.36812 9.90942 9.6194C9.30279 9.87067 8.65261 10 7.996 10C6.66992 10 5.39815 9.47322 4.46047 8.53553C3.52278 7.59785 2.996 6.32608 2.996 5C2.996 3.67392 3.52278 2.40215 4.46047 1.46447C5.39815 0.526784 6.66992 0 7.996 0ZM7.996 1.5C7.53637 1.5 7.08125 1.59053 6.65661 1.76642C6.23197 1.94231 5.84613 2.20012 5.52113 2.52513C5.19612 2.85013 4.93831 3.23597 4.76242 3.66061C4.58653 4.08525 4.496 4.54037 4.496 5C4.496 5.45963 4.58653 5.91475 4.76242 6.33939C4.93831 6.76403 5.19612 7.14987 5.52113 7.47487C5.84613 7.79988 6.23197 8.05769 6.65661 8.23358C7.08125 8.40947 7.53637 8.5 7.996 8.5C8.92426 8.5 9.8145 8.13125 10.4709 7.47487C11.1273 6.8185 11.496 5.92826 11.496 5C11.496 4.07174 11.1273 3.1815 10.4709 2.52513C9.8145 1.86875 8.92426 1.5 7.996 1.5ZM14.188 11.99L14.664 10.785C14.906 10.171 15.584 9.852 16.212 10.057L16.643 10.198C17.367 10.435 17.969 11.004 17.993 11.767C18.093 14.877 15.517 19.35 12.78 20.822C12.107 21.184 11.312 20.945 10.745 20.431L10.408 20.126C10.1724 19.9127 10.0266 19.6178 10.0002 19.301C9.97387 18.9843 10.0689 18.6693 10.266 18.42L11.066 17.41C11.356 17.043 11.833 16.88 12.286 16.99L13.578 17.303C14.681 16.573 15.272 15.547 15.352 14.224L14.435 13.26C14.2771 13.0938 14.17 12.886 14.1262 12.661C14.0825 12.436 14.1039 12.2032 14.188 11.99Z" fill="#54B0D7"/>
</svg>
