<svg width="22" height="17" viewBox="0 0 22 17" fill="none" xmlns="http://www.w3.org/2000/svg">
<path d="M2.75 12.75H2.25C1.85218 12.75 1.47064 12.908 1.18934 13.1893C0.908035 13.4706 0.75 13.8522 0.75 14.25C0.75 14.6478 0.908035 15.0294 1.18934 15.3107C1.47064 15.592 1.85218 15.75 2.25 15.75H19.25C19.6478 15.75 20.0294 15.592 20.3107 15.3107C20.592 15.0294 20.75 14.6478 20.75 14.25C20.75 13.8522 20.592 13.4706 20.3107 13.1893C20.0294 12.908 19.6478 12.75 19.25 12.75H18.75M2.75 12.75H18.75M2.75 12.75V3.95C2.75 2.83 2.75 2.27 2.968 1.842C3.16 1.465 3.465 1.16 3.842 0.968C4.27 0.75 4.83 0.75 5.95 0.75H15.55C16.67 0.75 17.23 0.75 17.657 0.968C18.034 1.16 18.34 1.465 18.532 1.842C18.75 2.269 18.75 2.829 18.75 3.947V12.75" stroke="#54B0D7" stroke-width="1.5" stroke-linecap="round" stroke-linejoin="round"/>
</svg>
