<svg width="17" height="19" viewBox="0 0 17 19" fill="none" xmlns="http://www.w3.org/2000/svg">
<path d="M16.5 9.5V14.5C16.5 16.386 16.5 17.328 15.914 17.914C15.328 18.5 14.386 18.5 12.5 18.5H3C2.33696 18.5 1.70107 18.2366 1.23223 17.7678C0.763392 17.2989 0.5 16.663 0.5 16M16.5 9.5C16.5 11.386 16.5 12.328 15.914 12.914C15.328 13.5 14.386 13.5 12.5 13.5H3C2.33696 13.5 1.70107 13.7634 1.23223 14.2322C0.763392 14.7011 0.5 15.337 0.5 16M16.5 9.5V4.5C16.5 2.614 16.5 1.672 15.914 1.086C15.328 0.5 14.386 0.5 12.5 0.5H4.5C2.614 0.5 1.672 0.5 1.086 1.086C0.5 1.672 0.5 2.614 0.5 4.5V16" stroke="#637381"/>
<path d="M5.5 5.5H11.5" stroke="#637381" stroke-linecap="round"/>
</svg>
