<svg width="24" height="21" viewBox="0 0 24 21" fill="none" xmlns="http://www.w3.org/2000/svg">
<path d="M18.5391 8.73047C18.8594 9.29297 19.0977 9.87891 19.2539 10.4883C19.4102 11.0977 19.4922 11.7266 19.5 12.375V13.582L12 17.3438L4.5 13.582C4.5 13.1133 4.50391 12.6758 4.51172 12.2695C4.51953 11.8633 4.55469 11.4688 4.61719 11.0859C4.67969 10.7031 4.77344 10.3203 4.89844 9.9375C5.02344 9.55469 5.21094 9.15234 5.46094 8.73047L3 7.5V14.3789C3.22656 14.457 3.42969 14.5664 3.60938 14.707C3.78906 14.8477 3.94922 15.0117 4.08984 15.1992C4.23047 15.3867 4.33203 15.5898 4.39453 15.8086C4.45703 16.0273 4.49219 16.2578 4.5 16.5V20.25H0V16.5C0 16.2656 0.0351562 16.0391 0.105469 15.8203C0.175781 15.6016 0.277344 15.3945 0.410156 15.1992C0.542969 15.0039 0.699219 14.8398 0.878906 14.707C1.05859 14.5742 1.26562 14.4648 1.5 14.3789V6.75L0 6L12 0L24 6L18.5391 8.73047ZM3 16.5C3 16.2969 2.92578 16.1211 2.77734 15.9727C2.62891 15.8242 2.45312 15.75 2.25 15.75C2.04688 15.75 1.87109 15.8242 1.72266 15.9727C1.57422 16.1211 1.5 16.2969 1.5 16.5V18.75H3V16.5ZM3.35156 6L12 10.3242L20.6484 6L12 1.67578L3.35156 6ZM18 12.6562C18 12.0547 17.9414 11.4961 17.8242 10.9805C17.707 10.4648 17.5 9.9375 17.2031 9.39844L12 12L6.79688 9.39844C6.53906 9.85156 6.34375 10.3281 6.21094 10.8281C6.07812 11.3281 6.00781 11.8438 6 12.375V12.6562L12 15.6562L18 12.6562Z" fill="#54B0D7"/>
</svg>
