<svg width="20" height="15" viewBox="0 0 20 15" fill="none" xmlns="http://www.w3.org/2000/svg">
<path d="M4.1436 0.261395C4.06349 0.179654 3.96806 0.1145 3.86275 0.0696554C3.75745 0.0248111 3.64434 0.0011557 3.52989 4.13003e-05C3.41544 -0.0010731 3.30189 0.020375 3.19574 0.0631603C3.08958 0.105946 2.99289 0.16923 2.9112 0.249396C1.98741 1.16829 1.25458 2.2609 0.754943 3.46428C0.255303 4.66766 -0.00127104 5.95802 4.96007e-06 7.261C-0.00135099 8.614 0.275317 9.95285 0.812847 11.1945C1.35038 12.4361 2.1373 13.5541 3.1248 14.479C3.29103 14.6327 3.5106 14.7155 3.73689 14.7099C3.96319 14.7043 4.17839 14.6107 4.3368 14.449C4.716 14.0698 4.6692 13.4662 4.3044 13.117C3.5118 12.3616 2.88107 11.453 2.45055 10.4463C2.02002 9.43961 1.79869 8.35589 1.8 7.261C1.8 5.0458 2.6892 3.037 4.1316 1.5754C4.4796 1.2214 4.5156 0.633395 4.1436 0.261395ZM6.2568 2.377C6.09876 2.21438 5.88271 2.12105 5.65597 2.11745C5.42924 2.11385 5.21033 2.20028 5.0472 2.3578C4.39778 2.99842 3.88232 3.76187 3.53085 4.60366C3.17939 5.44546 2.99893 6.34877 3 7.261C3 9.2914 3.87601 11.1166 5.27161 12.379C5.43645 12.5244 5.65091 12.6007 5.87053 12.5922C6.09014 12.5837 6.29807 12.491 6.4512 12.3334C6.8448 11.9398 6.77161 11.3206 6.402 10.9726C5.89555 10.4962 5.4921 9.9211 5.21656 9.28273C4.94103 8.64436 4.79926 7.95629 4.8 7.261C4.8 5.881 5.3484 4.6282 6.24 3.709C6.5832 3.3562 6.63961 2.7586 6.2568 2.377ZM12.9432 2.3758C13.1012 2.21318 13.3173 2.11985 13.544 2.11625C13.7708 2.11265 13.9897 2.19908 14.1528 2.3566C14.8024 2.99736 15.3179 3.761 15.6694 4.60301C16.0209 5.44503 16.2012 6.34857 16.2 7.261C16.2 9.2914 15.324 11.1166 13.9284 12.379C13.7636 12.5244 13.5491 12.6007 13.3295 12.5922C13.1099 12.5837 12.9019 12.491 12.7488 12.3334C12.3552 11.9398 12.4284 11.3206 12.798 10.9726C13.3045 10.4962 13.7079 9.9211 13.9834 9.28273C14.259 8.64436 14.4007 7.95629 14.4 7.261C14.4 5.881 13.8516 4.6282 12.96 3.709C12.6168 3.3562 12.5604 2.7574 12.9432 2.3758ZM15.0564 0.261395C15.1365 0.179654 15.232 0.1145 15.3373 0.0696554C15.4426 0.0248111 15.5557 0.0011557 15.6701 4.13003e-05C15.7846 -0.0010731 15.8981 0.020375 16.0043 0.0631603C16.1104 0.105946 16.2071 0.16923 16.2888 0.249396C17.2126 1.16829 17.9454 2.2609 18.4451 3.46428C18.9447 4.66766 19.2013 5.95802 19.2 7.261C19.2014 8.614 18.9247 9.95285 18.3872 11.1945C17.8496 12.4361 17.0627 13.5541 16.0752 14.479C15.909 14.6327 15.6894 14.7155 15.4631 14.7099C15.2368 14.7043 15.0216 14.6107 14.8632 14.449C14.484 14.0698 14.5308 13.4662 14.8968 13.117C15.6892 12.3615 16.3197 11.4528 16.75 10.4462C17.1803 9.43947 17.4015 8.3558 17.4 7.261C17.4 5.0458 16.5108 3.037 15.0684 1.5754C14.7204 1.2214 14.6844 0.633395 15.0564 0.261395ZM9.6 5.461C9.12261 5.461 8.66478 5.65064 8.32721 5.9882C7.98965 6.32577 7.8 6.78361 7.8 7.261C7.8 7.73839 7.98965 8.19622 8.32721 8.53379C8.66478 8.87135 9.12261 9.061 9.6 9.061C10.0774 9.061 10.5352 8.87135 10.8728 8.53379C11.2104 8.19622 11.4 7.73839 11.4 7.261C11.4 6.78361 11.2104 6.32577 10.8728 5.9882C10.5352 5.65064 10.0774 5.461 9.6 5.461Z" fill="#637381"/>
</svg>
