<svg width="20" height="20" viewBox="0 0 20 20" fill="none" xmlns="http://www.w3.org/2000/svg">
<mask id="mask0_257_8104" style="mask-type:luminance" maskUnits="userSpaceOnUse" x="0" y="0" width="20" height="20">
<path d="M0.599609 7.6001C0.599609 5.7141 0.599609 4.7721 1.18561 4.1861C1.77161 3.6001 2.71361 3.6001 4.59961 3.6001H14.5996C16.4856 3.6001 17.4276 3.6001 18.0136 4.1861C18.5996 4.7721 18.5996 5.7141 18.5996 7.6001V8.6001H0.599609V7.6001Z" stroke="#C0C0C0" stroke-opacity="0.25" stroke-width="1.2"/>
<path d="M16.5996 3.6001H2.59961C1.49504 3.6001 0.599609 4.49553 0.599609 5.6001V16.6001C0.599609 17.7047 1.49504 18.6001 2.59961 18.6001H16.5996C17.7042 18.6001 18.5996 17.7047 18.5996 16.6001V5.6001C18.5996 4.49553 17.7042 3.6001 16.5996 3.6001Z" stroke="white" stroke-width="1.2"/>
<path d="M4.59961 0.600098V5.6001M14.5996 0.600098V5.6001" stroke="white" stroke-width="1.2" stroke-linecap="round"/>
</mask>
<g mask="url(#mask0_257_8104)">
<path d="M-2.40039 -2.3999H21.5996V21.6001H-2.40039V-2.3999Z" fill="#637381"/>
</g>
</svg>
