<svg width="16" height="16" viewBox="0 0 16 16" fill="none" xmlns="http://www.w3.org/2000/svg">
<path d="M1.83301 4.16536H6.49967H1.83301ZM4.16634 1.83203V6.4987V1.83203ZM9.49967 4.16536H14.1663H9.49967ZM2.29967 13.7014L4.16634 11.8347L2.29967 13.7014ZM4.16634 11.8347L6.03301 9.96803L4.16634 11.8347ZM4.16634 11.8347L2.29967 9.96803L4.16634 11.8347ZM4.16634 11.8347L6.03301 13.7014L4.16634 11.8347ZM9.49967 10.4347H14.1663H9.49967ZM9.49967 13.2347H14.1663H9.49967Z" fill="#FF9938"/>
<path d="M1.83301 4.16536H6.49967M4.16634 1.83203V6.4987M9.49967 4.16536H14.1663M2.29967 13.7014L4.16634 11.8347M4.16634 11.8347L6.03301 9.96803M4.16634 11.8347L2.29967 9.96803M4.16634 11.8347L6.03301 13.7014M9.49967 10.4347H14.1663M9.49967 13.2347H14.1663" stroke="#FF9938" stroke-width="1.5" stroke-linecap="round"/>
</svg>
