<svg width="100" height="37" viewBox="0 0 100 37" fill="none" xmlns="http://www.w3.org/2000/svg">
<path d="M99.0618 32.7328C99.0618 34.7046 97.7936 36.3018 96.2251 36.3018H3.39361C1.82581 36.3018 0.553223 34.7046 0.553223 32.7328V4.27161C0.553223 2.30076 1.82581 0.697998 3.39361 0.697998H96.2243C97.7936 0.697998 99.061 2.30076 99.061 4.27161L99.0618 32.7328Z" fill="black"/>
<path d="M95.9259 0.741158C97.6341 0.741158 99.0241 2.48363 99.0241 4.625V32.375C99.0241 34.5164 97.6341 36.2588 95.9259 36.2588H3.68946C1.98124 36.2588 0.591236 34.5164 0.591236 32.375V4.625C0.591236 2.48363 1.98124 0.741158 3.68946 0.741158H95.9259ZM95.9259 1.95543e-06H3.68946C1.66118 1.95543e-06 0 2.08241 0 4.625V32.375C0 34.9176 1.66118 37 3.68946 37H95.9259C97.9542 37 99.6154 34.9176 99.6154 32.375V4.625C99.6154 2.08241 97.9542 1.95543e-06 95.9259 1.95543e-06Z" fill="#A6A6A6"/>
<path d="M22.2311 18.3001C22.2097 15.3189 24.1784 13.8685 24.2684 13.8009C23.1535 11.7632 21.4253 11.4847 20.8181 11.4625C19.3666 11.2711 17.9587 12.5513 17.2194 12.5513C16.4652 12.5513 15.3267 11.481 14.0996 11.5125C12.5205 11.543 11.0432 12.6891 10.233 14.4688C8.56094 18.0976 9.80798 23.4302 11.4099 26.3634C12.2113 27.7999 13.1477 29.4038 14.3733 29.3474C15.5724 29.2854 16.0203 28.3891 17.4673 28.3891C18.901 28.3891 19.3216 29.3474 20.5716 29.3113C21.8585 29.2854 22.6687 27.8683 23.442 26.4189C24.3681 24.7724 24.74 23.1508 24.7547 23.0676C24.7245 23.0546 22.2555 21.8734 22.2311 18.3001Z" fill="white"/>
<path d="M19.8699 9.533C20.5148 8.52197 20.956 7.1465 20.8336 5.75067C19.9001 5.80247 18.7328 6.56005 18.0606 7.54887C17.4658 8.42022 16.9345 9.84842 17.0718 11.1915C18.1203 11.2896 19.1969 10.5283 19.8699 9.533Z" fill="white"/>
<path d="M39.5842 29.1413H37.9084L36.9905 25.5255H33.7998L32.9254 29.1413H31.2939L34.4551 16.8314H36.4075L39.5842 29.1413ZM36.7138 24.0085L35.8836 20.7941C35.7958 20.4657 35.6313 19.6924 35.3885 18.4751H35.359C35.2623 18.9987 35.1066 19.772 34.8926 20.7941L34.0773 24.0085H36.7138Z" fill="white"/>
<path d="M47.7134 24.5942C47.7134 26.1038 47.388 27.2971 46.7372 28.173C46.1542 28.9528 45.4304 29.3422 44.5663 29.3422C43.6336 29.3422 42.9636 28.9223 42.5555 28.0824H42.526V32.7583H40.9528V23.1873C40.9528 22.2382 40.9329 21.2642 40.8945 20.2652H42.2781L42.3659 21.6721H42.3954C42.92 20.6121 43.7162 20.083 44.7847 20.083C45.62 20.083 46.3173 20.4965 46.8751 21.3243C47.4345 22.1531 47.7134 23.2428 47.7134 24.5942ZM46.1107 24.6664C46.1107 23.8024 45.9557 23.0902 45.6443 22.5296C45.3042 21.945 44.8474 21.6527 44.2748 21.6527C43.8867 21.6527 43.534 21.8155 43.2189 22.1365C42.9031 22.4602 42.6965 22.883 42.5998 23.4065C42.5511 23.6507 42.5267 23.8505 42.5267 24.0078V25.4878C42.5267 26.1334 42.6847 26.6782 43.0005 27.1232C43.3163 27.5681 43.7266 27.7901 44.2313 27.7901C44.8238 27.7901 45.285 27.5033 45.6148 26.9317C45.9454 26.3591 46.1107 25.6043 46.1107 24.6664Z" fill="white"/>
<path d="M55.8577 24.5942C55.8577 26.1038 55.5323 27.2971 54.8807 28.173C54.2985 28.9528 53.5746 29.3422 52.7106 29.3422C51.7779 29.3422 51.1079 28.9223 50.7005 28.0824H50.671V32.7583H49.0978V23.1873C49.0978 22.2382 49.0779 21.2642 49.0396 20.2652H50.4231L50.5109 21.6721H50.5404C51.0643 20.6121 51.8605 20.083 52.9297 20.083C53.7643 20.083 54.4616 20.4965 55.0209 21.3243C55.578 22.1531 55.8577 23.2428 55.8577 24.5942ZM54.255 24.6664C54.255 23.8024 54.0993 23.0902 53.7879 22.5296C53.4477 21.945 52.9924 21.6527 52.4191 21.6527C52.0302 21.6527 51.6783 21.8155 51.3624 22.1365C51.0466 22.4602 50.8407 22.883 50.7441 23.4065C50.6961 23.6507 50.671 23.8505 50.671 24.0078V25.4878C50.671 26.1334 50.8289 26.6782 51.1433 27.1232C51.4591 27.5672 51.8694 27.7901 52.3756 27.7901C52.9681 27.7901 53.4293 27.5033 53.7591 26.9317C54.0897 26.3591 54.255 25.6043 54.255 24.6664Z" fill="white"/>
<path d="M64.9631 25.6892C64.9631 26.7363 64.6731 27.5883 64.0909 28.2459C63.4512 28.9647 62.5606 29.3236 61.4161 29.3236C60.3594 29.3236 59.5123 29.0683 58.8711 28.5567L59.2356 26.913C59.9263 27.4366 60.6841 27.6993 61.5098 27.6993C62.1023 27.6993 62.5635 27.5309 62.8948 27.1961C63.2247 26.8612 63.3892 26.4117 63.3892 25.8511C63.3892 25.3516 63.2534 24.9307 62.9811 24.5894C62.7103 24.2481 62.258 23.9308 61.6264 23.6376C59.9071 22.8338 59.0482 21.6562 59.0482 20.1078C59.0482 19.0958 59.3493 18.2661 59.9521 17.6205C60.5528 16.9739 61.3541 16.6511 62.3562 16.6511C63.2497 16.6511 63.9921 16.8462 64.5846 17.2357L64.1913 18.8433C63.6379 18.4659 63.0121 18.2772 62.3119 18.2772C61.7585 18.2772 61.3261 18.4483 61.0161 18.7887C60.7542 19.0931 60.6228 19.464 60.6228 19.9034C60.6228 20.3899 60.7726 20.7923 61.0737 21.1086C61.3357 21.4009 61.8116 21.7173 62.5023 22.0586C63.3471 22.485 63.9677 22.9836 64.3669 23.5553C64.7646 24.1251 64.9631 24.8382 64.9631 25.6892Z" fill="white"/>
<path d="M70.1648 21.745H68.4307V26.0545C68.4307 27.1507 68.7362 27.6983 69.3487 27.6983C69.6298 27.6983 69.863 27.6677 70.0475 27.6067L70.091 29.1043C69.7811 29.2495 69.373 29.3226 68.8676 29.3226C68.2463 29.3226 67.7607 29.0848 67.4102 28.6103C67.0612 28.1349 66.8856 27.3375 66.8856 26.2173V21.7431H65.8525V20.2631H66.8856V18.6379L68.4307 18.0533V20.2631H70.1648V21.745Z" fill="white"/>
<path d="M77.9887 24.6301C77.9887 25.9944 77.6773 27.1146 77.056 27.9906C76.4044 28.8925 75.5396 29.342 74.4615 29.342C73.4226 29.342 72.5954 28.91 71.9785 28.0461C71.3617 27.1821 71.0532 26.0916 71.0532 24.7771C71.0532 23.4017 71.3705 22.275 72.0073 21.399C72.6426 20.5221 73.5001 20.0837 74.5781 20.0837C75.6171 20.0837 76.4531 20.5157 77.084 21.3805C77.6876 22.2195 77.9887 23.3027 77.9887 24.6301ZM76.3564 24.6939C76.3564 23.8753 76.217 23.1732 75.9344 22.5877C75.6045 21.8791 75.133 21.5258 74.522 21.5258C73.8897 21.5258 73.4093 21.88 73.0795 22.5877C72.7969 23.1741 72.6574 23.8873 72.6574 24.7309C72.6574 25.5495 72.7969 26.2516 73.0795 26.8362C73.4196 27.5447 73.8948 27.8981 74.508 27.8981C75.1087 27.8981 75.5802 27.5373 75.9204 26.8177C76.2103 26.2211 76.3564 25.5116 76.3564 24.6939Z" fill="white"/>
<path d="M83.1018 21.9996C82.9461 21.9635 82.7801 21.945 82.606 21.945C82.0525 21.945 81.6246 22.2068 81.3235 22.7313C81.0615 23.1938 80.9302 23.7784 80.9302 24.4841V29.1415H79.3577L79.3725 23.0606C79.3725 22.0375 79.3526 21.106 79.3135 20.2661H80.6837L80.7413 21.9644H80.7848C80.9509 21.3808 81.2128 20.9109 81.5714 20.5584C81.9219 20.2412 82.3005 20.083 82.7085 20.083C82.8539 20.083 82.9852 20.0959 83.1018 20.1191V21.9996Z" fill="white"/>
<path d="M90.1379 24.2834C90.1379 24.6367 90.1195 24.9346 90.0804 25.1779H85.3608C85.3793 26.0548 85.6073 26.7254 86.0456 27.1879C86.4433 27.6014 86.9576 27.8086 87.5893 27.8086C88.2881 27.8086 88.9256 27.6689 89.4989 27.3886L89.7454 28.7576C89.0754 29.1239 88.2844 29.3061 87.3716 29.3061C86.2736 29.3061 85.4118 28.901 84.7846 28.0916C84.1588 27.2822 83.8452 26.1954 83.8452 24.8319C83.8452 23.4934 84.1367 22.3788 84.7204 21.4899C85.3313 20.5408 86.157 20.0663 87.196 20.0663C88.2165 20.0663 88.9891 20.5408 89.5137 21.4899C89.9291 22.2438 90.1379 23.1762 90.1379 24.2834ZM88.6378 23.7719C88.6481 23.1873 88.5456 22.6822 88.3323 22.2558C88.06 21.7073 87.6417 21.4335 87.0787 21.4335C86.5643 21.4335 86.146 21.7008 85.8265 22.2373C85.5645 22.6637 85.4088 23.1752 85.3608 23.7709H88.6378V23.7719Z" fill="white"/>
<path d="M36.1935 9.25833C36.1935 10.3471 35.933 11.1666 35.4128 11.717C34.9309 12.2248 34.2462 12.4792 33.3592 12.4792C32.9194 12.4792 32.5431 12.4551 32.228 12.407V6.45835C32.639 6.3751 33.0818 6.33255 33.5599 6.33255C34.4048 6.33255 35.0416 6.56287 35.4711 7.02352C35.9522 7.5443 36.1935 8.28893 36.1935 9.25833ZM35.3781 9.28515C35.3781 8.57938 35.229 8.03825 34.9309 7.66085C34.6328 7.28437 34.1975 7.09567 33.6241 7.09567C33.3806 7.09567 33.1733 7.11602 33.0013 7.15857V11.6809C33.0965 11.6994 33.2707 11.7077 33.5238 11.7077C34.1156 11.7077 34.5723 11.5015 34.894 11.0889C35.2158 10.6764 35.3781 10.0751 35.3781 9.28515Z" fill="white"/>
<path d="M40.5167 10.2092C40.5167 10.8798 40.364 11.4293 40.0585 11.8603C39.7382 12.3034 39.3139 12.5245 38.7841 12.5245C38.2735 12.5245 37.8669 12.3127 37.5637 11.8872C37.2611 11.4626 37.1099 10.927 37.1099 10.2814C37.1099 9.60611 37.2656 9.05203 37.5784 8.62191C37.8913 8.19178 38.3119 7.97626 38.8417 7.97626C39.3523 7.97626 39.7626 8.18808 40.0732 8.61266C40.3684 9.02521 40.5167 9.55801 40.5167 10.2092ZM39.7146 10.2407C39.7146 9.83828 39.6453 9.49326 39.5073 9.20558C39.3449 8.85778 39.114 8.68388 38.8137 8.68388C38.503 8.68388 38.2669 8.85778 38.1045 9.20558C37.9658 9.49326 37.8972 9.84383 37.8972 10.2582C37.8972 10.6606 37.9666 11.0056 38.1045 11.2933C38.272 11.6411 38.5052 11.815 38.8063 11.815C39.1014 11.815 39.3331 11.6383 39.4999 11.2841C39.643 10.9908 39.7146 10.643 39.7146 10.2407Z" fill="white"/>
<path d="M46.3132 8.06519L45.2248 12.4256H44.5165L44.0656 10.5322C43.9512 10.0595 43.8583 9.58959 43.786 9.12339H43.7719C43.7048 9.60254 43.6118 10.0715 43.4923 10.5322L43.0134 12.4256H42.2969L41.2734 8.06519H42.0681L42.4614 10.1381C42.5566 10.6284 42.6348 11.0955 42.6976 11.5376H42.7116C42.7691 11.1732 42.8643 10.7088 42.9986 10.1474L43.4923 8.06611H44.1224L44.5954 10.103C44.7098 10.5997 44.8028 11.0779 44.8743 11.5386H44.8957C44.9481 11.0899 45.0271 10.6117 45.1319 10.103L45.5539 8.06611H46.3132V8.06519Z" fill="white"/>
<path d="M50.3224 12.4255H49.5491V9.92801C49.5491 9.15841 49.3159 8.77361 48.8481 8.77361C48.6186 8.77361 48.4334 8.87906 48.2895 9.09088C48.1471 9.30271 48.0748 9.55246 48.0748 9.83828V12.4246H47.3015V9.31103C47.3015 8.92808 47.2919 8.51276 47.2734 8.06321H47.953L47.9892 8.74493H48.0106C48.1006 8.53311 48.2349 8.35828 48.4113 8.21861C48.6208 8.05581 48.8555 7.97348 49.1123 7.97348C49.4369 7.97348 49.707 8.10483 49.9217 8.36846C50.1888 8.69128 50.3224 9.17321 50.3224 9.81331V12.4255Z" fill="white"/>
<path d="M52.4552 12.4256H51.6826V6.06433H52.4552V12.4256Z" fill="white"/>
<path d="M57.0079 10.2092C57.0079 10.8798 56.8552 11.4293 56.5497 11.8603C56.2294 12.3034 55.8044 12.5245 55.2754 12.5245C54.764 12.5245 54.3574 12.3127 54.0549 11.8872C53.7523 11.4626 53.6011 10.927 53.6011 10.2814C53.6011 9.60611 53.7568 9.05203 54.0696 8.62191C54.3825 8.19178 54.8031 7.97626 55.3322 7.97626C55.8435 7.97626 56.2531 8.18808 56.5644 8.61266C56.8596 9.02521 57.0079 9.55801 57.0079 10.2092ZM56.2051 10.2407C56.2051 9.83828 56.1357 9.49326 55.9977 9.20558C55.8361 8.85778 55.6044 8.68388 55.3049 8.68388C54.9935 8.68388 54.7574 8.85778 54.5958 9.20558C54.457 9.49326 54.3884 9.84383 54.3884 10.2582C54.3884 10.6606 54.4578 11.0056 54.5958 11.2933C54.7633 11.6411 54.9964 11.815 55.2975 11.815C55.5926 11.815 55.8236 11.6383 55.9904 11.2841C56.1343 10.9908 56.2051 10.643 56.2051 10.2407Z" fill="white"/>
<path d="M60.7507 12.4255H60.0563L59.9987 11.9232H59.9773C59.7397 12.3238 59.4011 12.5245 58.9613 12.5245C58.6329 12.5245 58.3673 12.3922 58.1673 12.1295C57.9858 11.8909 57.895 11.5939 57.895 11.2415C57.895 10.7087 58.0721 10.3026 58.4285 10.0214C58.7842 9.74023 59.2845 9.60241 59.9286 9.60888V9.52748C59.9286 8.95306 59.6881 8.66631 59.2063 8.66631C58.8631 8.66631 58.5606 8.77453 58.2994 8.98913L58.1422 8.35273C58.4654 8.10206 58.8646 7.97626 59.3354 7.97626C60.2445 7.97626 60.7005 8.57751 60.7005 9.78001V11.3858C60.7005 11.8215 60.7175 12.1684 60.7507 12.4255ZM59.9478 10.927V10.2545C59.0948 10.236 58.6683 10.5293 58.6683 11.1333C58.6683 11.3608 58.717 11.531 58.8166 11.6448C58.9163 11.7586 59.0432 11.815 59.1944 11.815C59.3642 11.815 59.5228 11.7475 59.6674 11.6134C59.8128 11.4783 59.9021 11.3072 59.9353 11.0972C59.9434 11.05 59.9478 10.9927 59.9478 10.927Z" fill="white"/>
<path d="M65.1447 12.4256H64.4585L64.4223 11.7253H64.4009C64.1818 12.2581 63.8084 12.5245 63.2838 12.5245C62.8646 12.5245 62.5156 12.3183 62.2389 11.9057C61.9622 11.4932 61.8242 10.9576 61.8242 10.2999C61.8242 9.59413 61.974 9.02248 62.2751 8.58588C62.5665 8.17888 62.9237 7.97538 63.3487 7.97538C63.8158 7.97538 64.1427 8.17241 64.3286 8.56738H64.3434V6.06433H65.1174V11.2508C65.1174 11.6754 65.1263 12.0667 65.1447 12.4256ZM64.3434 10.5867V9.85961C64.3434 9.73381 64.336 9.63206 64.322 9.55436C64.2784 9.32126 64.1847 9.12516 64.0423 8.96698C63.8984 8.80881 63.725 8.72926 63.5251 8.72926C63.2365 8.72926 63.0107 8.87263 62.8447 9.16031C62.6802 9.44798 62.5968 9.81521 62.5968 10.2638C62.5968 10.6949 62.6757 11.0445 62.8344 11.3137C63.0019 11.6005 63.2277 11.7438 63.5103 11.7438C63.7641 11.7438 63.9671 11.6245 64.1213 11.3849C64.2703 11.1639 64.3434 10.8975 64.3434 10.5867Z" fill="white"/>
<path d="M71.7584 10.2092C71.7584 10.8798 71.6057 11.4293 71.3002 11.8603C70.9799 12.3034 70.5564 12.5245 70.0258 12.5245C69.516 12.5245 69.1094 12.3127 68.8054 11.8872C68.5028 11.4626 68.3516 10.927 68.3516 10.2814C68.3516 9.60611 68.5073 9.05203 68.8201 8.62191C69.133 8.19178 69.5536 7.97626 70.0841 7.97626C70.594 7.97626 71.005 8.18808 71.3149 8.61266C71.6101 9.02521 71.7584 9.55801 71.7584 10.2092ZM70.9571 10.2407C70.9571 9.83828 70.8877 9.49326 70.7497 9.20558C70.5866 8.85778 70.3564 8.68388 70.0554 8.68388C69.7454 8.68388 69.5093 8.85778 69.3462 9.20558C69.2075 9.49326 69.1389 9.84383 69.1389 10.2582C69.1389 10.6606 69.2083 11.0056 69.3462 11.2933C69.5137 11.6411 69.7469 11.815 70.048 11.815C70.3431 11.815 70.5756 11.6383 70.7423 11.2841C70.8847 10.9908 70.9571 10.643 70.9571 10.2407Z" fill="white"/>
<path d="M75.9164 12.4255H75.1438V9.92801C75.1438 9.15841 74.9106 8.77361 74.4421 8.77361C74.2126 8.77361 74.0274 8.87906 73.8842 9.09088C73.7411 9.30271 73.6695 9.55246 73.6695 9.83828V12.4246H72.8955V9.31103C72.8955 8.92808 72.8866 8.51276 72.8682 8.06321H73.547L73.5832 8.74493H73.6046C73.6953 8.53311 73.8296 8.35828 74.0053 8.21861C74.2156 8.05581 74.4495 7.97348 74.707 7.97348C75.0309 7.97348 75.301 8.10483 75.5157 8.36846C75.7836 8.69128 75.9164 9.17321 75.9164 9.81331V12.4255Z" fill="white"/>
<path d="M81.1209 8.7912H80.2694V10.9095C80.2694 11.4478 80.4207 11.717 80.7202 11.717C80.859 11.717 80.9741 11.7022 81.0648 11.6717L81.0848 12.407C80.932 12.4792 80.7313 12.5153 80.4841 12.5153C80.1786 12.5153 79.941 12.3987 79.7691 12.1656C79.5964 11.9325 79.5108 11.5403 79.5108 10.9899V8.7912H79.0024V8.06508H79.5108V7.26588L80.2687 6.97913V8.06415H81.1202V8.7912H81.1209Z" fill="white"/>
<path d="M85.2148 12.4256H84.4407V9.94656C84.4407 9.16493 84.2076 8.77366 83.7405 8.77366C83.3819 8.77366 83.1369 9.00028 83.0026 9.45353C82.9797 9.54881 82.9664 9.66536 82.9664 9.80226V12.4246H82.1938V6.06433H82.9664V8.69226H82.9812C83.2247 8.21403 83.5737 7.97538 84.026 7.97538C84.3463 7.97538 84.6112 8.10673 84.8215 8.37036C85.0834 8.69873 85.2148 9.18713 85.2148 9.83278V12.4256Z" fill="white"/>
<path d="M89.4377 10.039C89.4377 10.2129 89.4274 10.3591 89.4089 10.4784H87.0897C87.1001 10.9094 87.2108 11.2378 87.4255 11.4654C87.6218 11.6689 87.8749 11.7706 88.1848 11.7706C88.5279 11.7706 88.8408 11.7022 89.1226 11.5643L89.2437 12.2377C88.9138 12.4172 88.5257 12.5069 88.0763 12.5069C87.5376 12.5069 87.1134 12.308 86.8064 11.9103C86.498 11.5125 86.3452 10.9788 86.3452 10.3091C86.3452 9.65143 86.4876 9.10383 86.7747 8.66723C87.0743 8.20103 87.4794 7.96793 87.9907 7.96793C88.491 7.96793 88.871 8.20103 89.1278 8.66723C89.3352 9.03723 89.4377 9.4951 89.4377 10.039ZM88.6998 9.78833C88.7057 9.50065 88.6548 9.25275 88.55 9.0437C88.4157 8.77453 88.2113 8.63948 87.9346 8.63948C87.6823 8.63948 87.4764 8.77083 87.3192 9.03445C87.1908 9.24443 87.1148 9.4951 87.0897 9.78833H88.6998Z" fill="white"/>
</svg>
