<svg width="101" height="37" viewBox="0 0 101 37" fill="none" xmlns="http://www.w3.org/2000/svg">
<path d="M96.5264 37H3.71255C1.67158 37 0 34.9176 0 32.375V4.625C0 2.08241 1.67158 4.31751e-06 3.71255 4.31751e-06H96.5264C98.5674 4.31751e-06 100.239 2.08241 100.239 4.625V32.375C100.239 34.9176 98.5674 37 96.5264 37Z" fill="black"/>
<path d="M96.5264 0.74116C98.2453 0.74116 99.644 2.48363 99.644 4.625V32.375C99.644 34.5164 98.2453 36.2588 96.5264 36.2588H3.71255C1.99364 36.2588 0.594937 34.5164 0.594937 32.375V4.625C0.594937 2.48363 1.99364 0.74116 3.71255 0.74116H96.5264ZM96.5264 4.31751e-06H3.71255C1.67158 4.31751e-06 0 2.08241 0 4.625V32.375C0 34.9176 1.67158 37 3.71255 37H96.5264C98.5674 37 100.239 34.9176 100.239 32.375V4.625C100.239 2.08241 98.5674 4.31751e-06 96.5264 4.31751e-06Z" fill="#A6A6A6"/>
<path d="M35.2079 9.47535C35.2079 10.2477 35.0223 10.8663 34.6566 11.3277C34.2362 11.8746 33.6886 12.1498 33.0175 12.1498C32.3762 12.1498 31.8286 11.8699 31.3793 11.3184C30.9292 10.7588 30.7046 10.072 30.7046 9.24988C30.7046 8.42779 30.9292 7.74098 31.3793 7.18598C31.8286 6.62982 32.3762 6.35001 33.0175 6.35001C33.3368 6.35001 33.6412 6.4321 33.9317 6.58472C34.2213 6.73851 34.4571 6.94663 34.6278 7.20332L34.2399 7.69126C33.9419 7.25304 33.5363 7.03682 33.0175 7.03682C32.5497 7.03682 32.1441 7.24032 31.7998 7.65079C31.4592 8.06241 31.2884 8.59544 31.2884 9.24988C31.2884 9.90432 31.4592 10.442 31.7998 10.8536C32.1441 11.2594 32.5497 11.4676 33.0175 11.4676C33.5141 11.4676 33.9317 11.2594 34.2612 10.849C34.4784 10.5773 34.6018 10.2026 34.6343 9.72394H33.0175V9.05563H35.1745C35.2005 9.20016 35.2079 9.34007 35.2079 9.47535Z" fill="white" stroke="white" stroke-width="0.16" stroke-miterlimit="10"/>
<path d="M38.63 7.15817H36.6039V8.91567H38.4304V9.58398H36.6039V11.3415H38.63V12.0225H36.0303V6.47714H38.63V7.15817Z" fill="white" stroke="white" stroke-width="0.16" stroke-miterlimit="10"/>
<path d="M41.0449 12.0225H40.4713V7.15817H39.2285V6.47714H42.2886V7.15817H41.0449V12.0225Z" fill="white" stroke="white" stroke-width="0.16" stroke-miterlimit="10"/>
<path d="M44.5034 12.0225V6.47714H45.0761V12.0225H44.5034Z" fill="white" stroke="white" stroke-width="0.16" stroke-miterlimit="10"/>
<path d="M47.6147 12.0225H47.0458V7.15817H45.7983V6.47714H48.8621V7.15817H47.6147V12.0225Z" fill="white" stroke="white" stroke-width="0.16" stroke-miterlimit="10"/>
<path d="M54.6552 11.3092C54.2162 11.8699 53.6723 12.1498 53.0235 12.1498C52.371 12.1498 51.8271 11.8699 51.3881 11.3092C50.95 10.7495 50.7319 10.0627 50.7319 9.24988C50.7319 8.43704 50.95 7.75022 51.3881 7.1906C51.8271 6.62982 52.371 6.35001 53.0235 6.35001C53.6686 6.35001 54.2125 6.62982 54.6515 7.19522C55.0933 7.75947 55.3114 8.44166 55.3114 9.24988C55.3114 10.0627 55.0933 10.7495 54.6552 11.3092ZM51.8123 10.8443C52.1427 11.2594 52.5446 11.4676 53.0235 11.4676C53.4987 11.4676 53.9043 11.2594 54.231 10.8443C54.5605 10.4293 54.7276 9.89622 54.7276 9.24988C54.7276 8.60354 54.5605 8.07051 54.231 7.65541C53.9043 7.24032 53.4987 7.03219 53.0235 7.03219C52.5446 7.03219 52.1427 7.24032 51.8123 7.65541C51.4828 8.07051 51.3157 8.60354 51.3157 9.24988C51.3157 9.89622 51.4828 10.4293 51.8123 10.8443Z" fill="white" stroke="white" stroke-width="0.16" stroke-miterlimit="10"/>
<path d="M56.1162 12.0225V6.47714H56.8123L58.9767 10.79H59.0018L58.9767 9.72389V6.47714H59.5494V12.0225H58.9517L56.6852 7.49695H56.6601L56.6852 8.56764V12.0225H56.1162Z" fill="white" stroke="white" stroke-width="0.16" stroke-miterlimit="10"/>
<path d="M50.591 20.1211C48.847 20.1211 47.4223 21.7745 47.4223 24.0558C47.4223 26.3186 48.847 27.9894 50.591 27.9894C52.3387 27.9894 53.7634 26.3186 53.7634 24.0558C53.7634 21.7745 52.3387 20.1211 50.591 20.1211ZM50.591 26.44C49.6341 26.44 48.8108 25.456 48.8108 24.0558C48.8108 22.6371 49.6341 21.6705 50.591 21.6705C51.5479 21.6705 52.3749 22.6371 52.3749 24.0558C52.3749 25.456 51.5479 26.44 50.591 26.44ZM43.6773 20.1211C41.9296 20.1211 40.5086 21.7745 40.5086 24.0558C40.5086 26.3186 41.9296 27.9894 43.6773 27.9894C45.424 27.9894 46.8459 26.3186 46.8459 24.0558C46.8459 21.7745 45.424 20.1211 43.6773 20.1211ZM43.6773 26.44C42.7194 26.44 41.8934 25.456 41.8934 24.0558C41.8934 22.6371 42.7194 21.6705 43.6773 21.6705C44.6342 21.6705 45.4574 22.6371 45.4574 24.0558C45.4574 25.456 44.6342 26.44 43.6773 26.44ZM35.4503 21.327V22.999H38.6551C38.5614 23.9332 38.3108 24.62 37.9265 25.0987C37.4588 25.6769 36.7302 26.3186 35.4503 26.3186C33.478 26.3186 31.9335 24.3356 31.9335 21.8786C31.9335 19.4215 33.478 17.4386 35.4503 17.4386C36.5167 17.4386 37.2926 17.9577 37.8653 18.6307L38.811 17.4525C38.0101 16.4997 36.9446 15.7678 35.4503 15.7678C32.7457 15.7678 30.4727 18.5093 30.4727 21.8786C30.4727 25.2479 32.7457 27.9894 35.4503 27.9894C36.9121 27.9894 38.0101 27.3927 38.8732 26.2735C39.7577 25.1716 40.0334 23.6222 40.0334 22.3711C40.0334 21.9826 40.0074 21.6254 39.961 21.327H35.4503ZM69.0916 22.6232C68.8307 21.7433 68.0261 20.1211 66.387 20.1211C64.7627 20.1211 63.4104 21.7155 63.4104 24.0558C63.4104 26.2596 64.7488 27.9894 66.5429 27.9894C67.9936 27.9894 68.8307 26.8874 69.1751 26.2457L68.0984 25.352C67.7393 26.0064 67.2501 26.44 66.5429 26.44C65.8403 26.44 65.3363 26.0388 65.0133 25.2479L69.2373 23.0707L69.0916 22.6232ZM64.785 23.9332C64.7488 22.4162 65.7308 21.6392 66.4343 21.6392C66.9856 21.6392 67.4534 21.9826 67.6093 22.474L64.785 23.9332ZM61.3518 27.75H62.7403V16.1875H61.3518V27.75ZM59.0779 20.9975H59.0315C58.7196 20.5373 58.1247 20.1211 57.371 20.1211C55.7895 20.1211 54.3434 21.8508 54.3434 24.0685C54.3434 26.2735 55.7895 27.9894 57.371 27.9894C58.1247 27.9894 58.7196 27.5696 59.0315 27.0956H59.0779V27.6598C59.0779 29.1641 58.4328 29.9723 57.3924 29.9723C56.5441 29.9723 56.0178 29.2092 55.8006 28.5675L54.5931 29.1953C54.9412 30.2383 55.8628 31.5217 57.3924 31.5217C59.0203 31.5217 60.394 30.3284 60.394 27.4251V20.3604H59.0779V20.9975ZM57.4898 26.44C56.5329 26.44 55.7319 25.4421 55.7319 24.0685C55.7319 22.6822 56.5329 21.6705 57.4898 21.6705C58.4328 21.6705 59.1763 22.6822 59.1763 24.0685C59.1763 25.4421 58.4328 26.44 57.4898 26.44ZM75.5922 16.1875H72.2713V27.75H73.6561V23.369H75.5922C77.1302 23.369 78.6384 21.9826 78.6384 19.7777C78.6384 17.5739 77.1264 16.1875 75.5922 16.1875ZM75.6284 21.7606H73.6561V17.7959H75.6284C76.6624 17.7959 77.2527 18.8654 77.2527 19.7777C77.2527 20.6726 76.6624 21.7606 75.6284 21.7606ZM84.1886 20.0991C83.1881 20.0991 82.1477 20.6495 81.7198 21.8693L82.9487 22.511C83.2132 21.8693 83.6995 21.6612 84.2137 21.6612C84.9321 21.6612 85.6607 22.1989 85.6718 23.1481V23.2695C85.4212 23.0892 84.8848 22.8221 84.2248 22.8221C82.9013 22.8221 81.5527 23.7297 81.5527 25.4236C81.5527 26.973 82.6368 27.9709 83.8554 27.9709C84.7873 27.9709 85.3015 27.4471 85.6245 26.8377H85.6718V27.7315H87.0093V23.2961C87.0093 21.2461 85.7804 20.0991 84.1886 20.0991ZM84.0216 26.4354C83.5686 26.4354 82.9375 26.1555 82.9375 25.456C82.9375 24.5611 83.7246 24.2177 84.4058 24.2177C85.0156 24.2177 85.3015 24.3853 85.6718 24.6062C85.5632 25.6769 84.8235 26.4354 84.0216 26.4354ZM91.882 20.3523L90.2902 25.3647H90.2429L88.5973 20.3523H87.1039L89.5765 27.3569L88.1657 31.2546H89.6127L93.4227 20.3523H91.882ZM79.3995 27.75H80.7879V16.1875H79.3995V27.75Z" fill="white"/>
<path d="M7.74815 6.97341C7.53003 7.25784 7.40381 7.70069 7.40381 8.27419V28.7306C7.40381 29.3041 7.53003 29.7469 7.74815 30.0313L7.80198 30.0938L17.0035 18.6353V18.3648L7.80198 6.90634L7.74815 6.97341Z" fill="url(#paint0_linear_257_25216)"/>
<path d="M20.0677 22.4565L17.0039 18.6351V18.3646L20.0714 14.5432L20.1401 14.5929L23.7728 17.1679C24.8095 17.8986 24.8095 19.1011 23.7728 19.8365L20.1401 22.4068L20.0677 22.4565Z" fill="url(#paint1_linear_257_25216)"/>
<path d="M20.1396 22.4069L17.0034 18.4999L7.74805 30.0312C8.09239 30.4821 8.65391 30.5364 9.29247 30.0855L20.1396 22.4069Z" fill="url(#paint2_linear_257_25216)"/>
<path d="M20.1396 14.593L9.29247 6.91438C8.65391 6.46807 8.09239 6.52241 7.74805 6.97335L17.0034 18.5L20.1396 14.593Z" fill="url(#paint3_linear_257_25216)"/>
<defs>
<linearGradient id="paint0_linear_257_25216" x1="16.1866" y1="28.9436" x2="1.03028" y2="16.7774" gradientUnits="userSpaceOnUse">
<stop stop-color="#00A0FF"/>
<stop offset="0.0066" stop-color="#00A1FF"/>
<stop offset="0.2601" stop-color="#00BEFF"/>
<stop offset="0.5122" stop-color="#00D2FF"/>
<stop offset="0.7604" stop-color="#00DFFF"/>
<stop offset="1" stop-color="#00E3FF"/>
</linearGradient>
<linearGradient id="paint1_linear_257_25216" x1="25.1228" y1="18.4986" x2="7.15636" y2="18.4986" gradientUnits="userSpaceOnUse">
<stop stop-color="#FFE000"/>
<stop offset="0.4087" stop-color="#FFBD00"/>
<stop offset="0.7754" stop-color="#FFA500"/>
<stop offset="1" stop-color="#FF9C00"/>
</linearGradient>
<linearGradient id="paint2_linear_257_25216" x1="18.4343" y1="16.376" x2="-2.11888" y2="-0.122305" gradientUnits="userSpaceOnUse">
<stop stop-color="#FF3A44"/>
<stop offset="1" stop-color="#C31162"/>
</linearGradient>
<linearGradient id="paint3_linear_257_25216" x1="5.41827" y1="36.837" x2="14.5961" y2="29.4699" gradientUnits="userSpaceOnUse">
<stop stop-color="#32A071"/>
<stop offset="0.0685" stop-color="#2DA771"/>
<stop offset="0.4762" stop-color="#15CF74"/>
<stop offset="0.8009" stop-color="#06E775"/>
<stop offset="1" stop-color="#00F076"/>
</linearGradient>
</defs>
</svg>
